<svg width="129" height="129" viewBox="0 0 129 129" fill="none" xmlns="http://www.w3.org/2000/svg">
<g clip-path="url(#clip0)">
<path fill-rule="evenodd" clip-rule="evenodd" d="M127.47 73.11C127.31 74.22 127.12 75.33 126.9 76.43C126.58 78.07 126.19 79.6867 125.73 81.28C124.577 85.4535 122.992 89.4954 121 93.34C120.29 94.73 119.53 96.08 118.71 97.41C113.815 105.377 107.263 112.198 99.5 117.41C97.2569 118.895 94.9185 120.232 92.5 121.41C91.45 121.94 90.39 122.41 89.31 122.9C83.2684 125.499 76.8578 127.139 70.31 127.76C59.1906 128.852 47.9789 127.015 37.79 122.43L36.79 121.99C35.1567 121.223 33.5667 120.39 32.02 119.49C31.52 119.203 31.02 118.903 30.52 118.59C24.9161 115.151 19.8767 110.867 15.58 105.89C13.8737 103.927 12.2907 101.859 10.84 99.7L10.38 99C9.23335 97.24 8.16669 95.42 7.18002 93.54C6.65002 92.54 6.18002 91.48 5.67002 90.43C5.48002 90 5.29002 89.57 5.11002 89.14C3.0272 84.2701 1.56895 79.1561 0.770019 73.92C0.418381 71.6942 0.188041 69.4509 0.0800189 67.2C0.0800189 66.2 1.8921e-05 65.11 1.8921e-05 64.05C-0.00698933 54.9354 1.93296 45.9243 5.69002 37.62C6.08002 36.76 6.49002 35.9 6.93002 35.06C7.77072 33.3813 8.69522 31.7459 9.70002 30.16C12.9203 24.9889 16.8673 20.3077 21.42 16.26L22.05 15.71C33.6711 5.56881 48.5762 -0.0130318 64 2.28471e-05C69.1206 -0.00232435 74.2232 0.605289 79.2 1.81002C85.8798 3.44316 92.2518 6.14463 98.07 9.81002C99.19 10.52 100.29 11.26 101.35 12.03C102.25 12.67 103.12 13.34 103.98 14.03C108.182 17.3816 111.942 21.2525 115.17 25.55C116.09 26.77 116.967 28.0267 117.8 29.32C119.052 31.2347 120.191 33.2215 121.21 35.27C124.67 42.0611 126.869 49.4237 127.7 57C127.7 57.15 127.7 57.3 127.7 57.45C127.79 58.31 127.87 59.17 127.92 60.03C128.22 64.3939 128.069 68.7771 127.47 73.11Z" fill="url(#paint0_radial)"/>
<g style="mix-blend-mode:multiply" opacity="0.5">
<g style="mix-blend-mode:multiply" opacity="0.5">
<path fill-rule="evenodd" clip-rule="evenodd" d="M127.47 73.1101L127.36 72.9701C125.74 70.9701 123.62 69.3001 122.11 67.1901C121.246 65.7958 120.059 64.6297 118.65 63.7901C117.636 63.213 116.587 62.6987 115.51 62.2501C114.51 61.8901 113.51 61.8401 112.51 61.5301C111.335 60.9955 110.099 60.606 108.83 60.3701C107.571 60.1787 106.302 60.0519 105.03 59.9901C104.24 59.9901 101.59 59.4801 101.49 60.7601C101.692 61.3795 102.058 61.9325 102.55 62.3601C103.975 63.2582 105.498 63.9896 107.09 64.5401C109.78 65.6301 112.55 66.4201 115.19 67.6601C117.889 68.9761 120.425 70.6002 122.75 72.5001C124.246 73.6719 125.622 74.9883 126.86 76.4301C126.54 78.0701 126.15 79.6868 125.69 81.2801C124.863 80.8013 124.065 80.2737 123.3 79.7001C122.43 78.9901 121.65 78.2001 120.82 77.4401C118.553 75.1952 116.09 73.1571 113.46 71.3501C112.46 70.6801 111.33 70.0501 110.24 69.4501C109.15 68.8501 107.86 68.4501 106.73 67.8701C104.73 66.7501 102.63 65.7501 100.56 64.7601C97.834 63.6488 95.0031 62.8146 92.1101 62.2701C87.5938 61.1171 83.0075 60.2587 78.3801 59.7001C73.4118 59.237 68.4973 58.313 63.7001 56.9401C61.3001 56.2301 58.9401 55.4601 56.5001 54.8601C54.4401 54.3601 52.4401 53.5601 50.3501 53.1501C46.0637 52.3584 41.6866 52.18 37.3501 52.6201C32.0601 53.1101 26.7901 51.8001 21.5001 52.7901C16.9393 53.7559 12.525 55.3159 8.37005 57.4301C6.26005 58.4301 5.01005 60.5101 3.61005 62.2801C2.34084 63.8517 1.16226 65.4944 0.080052 67.2001C0.080052 66.2001 5.20332e-05 65.1101 5.20332e-05 64.0501C-0.0115842 54.935 1.92857 45.923 5.69005 37.6201C6.85222 35.0454 8.18865 32.5529 9.69005 30.1601C12.9103 24.989 16.8574 20.3078 21.4101 16.2601L22.0401 15.7101C24.4943 15.2391 26.9822 14.9649 29.4801 14.8901C31.9601 14.8201 34.5901 15.2301 37.0401 14.8301C38.1914 14.6488 39.3545 14.5518 40.5201 14.5401C41.5701 14.5401 42.5201 14.2001 43.6001 14.1501C47.2401 13.9801 50.7901 12.6001 54.4201 12.6301C56.1101 12.6301 57.8001 12.6301 59.4801 12.6301C61.6701 12.6301 63.8101 13.0101 66.0301 13.0201C71.2663 12.9266 76.4823 13.6934 81.4701 15.2901C86.155 16.9368 90.9727 18.178 95.8701 19.0001C99.6217 19.4263 103.276 20.4775 106.68 22.1101C107.89 22.7601 108.94 23.4501 110.1 24.2001C110.752 24.6795 111.352 25.2258 111.89 25.8301C112.631 26.4427 113.431 26.9788 114.28 27.4301C115.225 28.0891 116.229 28.6583 117.28 29.1301L117.81 29.3301C118.46 29.5801 119.12 29.8201 119.75 30.0801C120.38 30.3401 120.46 30.6401 120.86 31.2301C121.253 31.6658 121.607 32.1341 121.92 32.6301C122.13 33.1201 122.18 33.7301 122.37 34.2501C122.64 34.9501 122.79 36.3801 123.37 36.9801C122.93 36.6101 122.37 36.3501 121.98 35.9801C121.735 35.7438 121.478 35.5202 121.21 35.3101C120.902 35.0683 120.566 34.8636 120.21 34.7001C119.523 34.2962 118.816 33.929 118.09 33.6001C116.91 33.2201 115.74 33.0201 114.57 32.5301C113.303 32.0638 112.067 31.516 110.87 30.8901C109.61 30.1501 108.54 29.1201 107.27 28.4001C104.58 26.8901 102.1 24.4701 99.2001 23.4701C98.0811 23.0231 96.9129 22.7109 95.7201 22.5401C94.9701 22.4701 94.2701 22.1801 93.5201 22.1301C92.7701 22.0801 91.7401 22.2101 90.84 22.1301C88.97 21.9401 87.0301 21.6501 85.1801 21.3101C83.5301 21.0101 81.9201 20.4501 80.2601 20.3101C78.6001 20.1701 76.8501 19.5201 75.1501 19.1701C73.2101 18.7601 71.23 18.5801 69.2801 18.2201C65.2801 17.4901 60.9001 18.1101 56.9501 18.6001C52.2201 19.1901 46.8801 19.7101 42.6001 22.0101C41.5301 22.5801 40.3901 23.0101 39.3001 23.5201C38.4965 23.9845 37.7455 24.5343 37.0601 25.1601C36.1701 25.8701 33.9701 26.3701 34.0601 27.8501C34.9856 27.6678 35.8878 27.3827 36.7501 27.0001C38.2901 26.6501 39.8101 26.6601 41.3201 26.3101C41.9701 26.1601 42.6001 26.3101 43.2601 26.2001C44.05 26.0547 44.819 25.8129 45.5501 25.4801C47.6338 24.5907 49.7674 23.8227 51.9401 23.1801C53.6201 22.7401 55.3301 22.3601 57.0401 22.0901C58.7478 21.965 60.4623 21.965 62.1701 22.0901H67.8001C70.0201 22.0901 72.3501 21.8401 74.4901 22.5501C75.9434 23.1139 77.2374 24.0235 78.2601 25.2001C79.4701 26.4901 79.7101 28.2501 80.9201 29.4901C81.3306 30.0155 81.7679 30.5195 82.2301 31.0001C82.8501 31.5201 83.8201 31.9401 84.5001 32.4101C86.0438 33.4204 87.8125 34.0352 89.6501 34.2001C90.2201 34.2501 90.8201 34.6001 91.3501 34.6001C91.8801 34.6001 91.8501 34.5501 92.1501 34.0601C92.3807 33.7688 92.4933 33.4014 92.4655 33.0308C92.4377 32.6603 92.2716 32.3138 92.0001 32.0601C91.3889 31.4027 90.6461 30.8813 89.8201 30.5301C88.7501 30.1201 87.6701 30.2301 86.8801 29.3101C86.6141 29.0156 86.4358 28.6526 86.3651 28.2621C86.2944 27.8716 86.3343 27.4692 86.4801 27.1001C86.8301 26.6001 88.34 26.6001 88.8801 26.4701C90.08 26.1701 90.3801 26.4701 91.5101 26.8601C92.6401 27.2501 93.8501 27.6501 95.0301 28.0701C96.7501 28.7001 98.41 29.4801 100.03 30.2701C100.61 30.5501 101.43 30.7001 101.85 31.1901C102.01 31.3801 102.23 32.0501 102.38 32.3101C103.23 33.8001 104.46 34.9301 105.38 36.4301C106.268 37.8753 106.655 39.573 106.48 41.2601C106.19 42.5201 105.48 44.0501 104.14 44.3901C102.8 44.7301 101.81 43.8801 100.44 43.5201C99.0701 43.1601 98.0501 42.5901 96.8301 43.3101C96.6127 43.4041 96.4189 43.5452 96.2627 43.7231C96.1065 43.9011 95.9917 44.1115 95.9267 44.3391C95.8616 44.5668 95.8479 44.8061 95.8865 45.0397C95.9252 45.2734 96.0152 45.4955 96.1501 45.6901C96.7801 46.8901 98.0801 46.9801 99.2801 47.2101C100.932 47.6123 102.556 48.1235 104.14 48.7401C105.6 49.2201 107.21 49.2301 108.74 49.6601C111.205 50.4569 113.581 51.5057 115.83 52.7901C118.28 54.1101 120.72 55.4301 123.25 56.5801C125.041 57.4005 126.654 58.5622 128 60.0001C128.275 64.3767 128.098 68.77 127.47 73.1101Z" fill="#C4B0B8"/>
</g>
<g style="mix-blend-mode:multiply" opacity="0.5">
<path fill-rule="evenodd" clip-rule="evenodd" d="M121 93.3401C120.29 94.7301 119.53 96.0801 118.71 97.4101C118 96.5388 117.213 95.7323 116.36 95.0001C115.497 94.1299 114.708 93.19 114 92.1901C113.294 91.3849 112.491 90.6695 111.61 90.0601C110.062 88.8455 108.348 87.8588 106.52 87.1301C104.155 86.196 101.868 85.0758 99.68 83.7801C96.88 82.1401 94.4 79.9801 91.68 78.2701C89.1707 76.6253 86.4579 75.3143 83.61 74.3701C82.25 73.9601 80.92 73.7401 79.61 73.2501C77.9368 72.7606 76.2033 72.5082 74.46 72.5001C72.89 72.4001 71.36 72.1101 69.8 71.9201C68.04 71.7101 66.26 71.7001 64.49 71.4701C61 71.0001 57.67 70.6801 54.3 70.3201C50.6774 69.9735 47.0391 69.8166 43.4 69.8501C40.0121 69.7218 36.6206 69.9767 33.29 70.6101C31.2743 71.0007 29.3039 71.5971 27.41 72.3901C26.26 72.9101 25.16 73.3901 24 73.8201C23.29 74.1001 22.64 74.5301 21.92 74.8201C20.902 75.0967 19.9004 75.4305 18.92 75.8201C16.3373 76.8713 14.0162 78.4756 12.12 80.5201C10.29 82.6201 8.64002 84.8801 6.81002 86.9901C6.20002 87.6901 5.64002 88.4501 5.09002 89.2101C3.00839 84.3169 1.55677 79.1791 0.77002 73.9201C1.43837 73.3968 2.14353 72.9222 2.88002 72.5001C5.46002 71.0201 8.19002 69.8701 10.82 68.5001C13.45 67.1301 16.15 65.5901 19.17 64.8801C21.4869 64.3629 23.8563 64.1179 26.23 64.1501C29.9491 64.0166 33.6729 64.1134 37.38 64.4401C38.51 64.5901 39.63 64.4401 40.76 64.7001C41.7791 64.9449 42.8106 65.1352 43.85 65.2701C45.16 65.3801 46.38 65.8301 47.68 66.0101C49.23 66.2201 50.76 66.3501 52.32 66.4101C53.32 66.4101 54.32 66.7701 55.32 66.8101C56.3605 66.7734 57.4022 66.7968 58.44 66.8801C61.5 67.3501 64.64 67.5001 67.74 67.8801C74.66 68.6301 81.64 69.4901 88.31 71.5601C89.7444 72.0922 91.1497 72.6997 92.52 73.3801C94.2281 74.004 95.8977 74.7286 97.52 75.5501C98.83 76.3101 100.26 76.9801 101.52 77.8101C102.967 78.8717 104.355 80.01 105.68 81.2201C107.42 82.6301 109.51 83.6201 111.34 84.9301C112.45 85.7101 113.53 86.4601 114.58 87.3101C115.83 88.3101 117.47 89.1001 118.5 90.3101C119.36 91.2601 120.23 92.2801 121 93.3401Z" fill="#C4B0B8"/>
</g>
<g style="mix-blend-mode:multiply" opacity="0.5">
<path fill-rule="evenodd" clip-rule="evenodd" d="M110.89 107.67C107.478 111.356 103.645 114.628 99.4699 117.42C96.6199 115.71 93.1499 114.9 90.3099 113.15C87.6768 111.705 84.9509 110.435 82.1499 109.35C79.2899 108.08 76.4599 106.88 73.4999 105.84C71.5546 105.149 69.5444 104.656 67.4999 104.37C66.5011 104.302 65.4988 104.302 64.4999 104.37C63.2521 104.265 61.9977 104.265 60.7499 104.37C57.9492 104.88 55.1066 105.124 52.2599 105.1C50.0699 105.1 47.8899 105.1 45.7099 105.1C43.8999 105.1 42.1899 104.72 40.3599 104.72C38.417 104.614 36.4688 104.775 34.5699 105.2C33.3834 105.466 32.2996 106.07 31.4499 106.94C30.5199 106.78 30.8499 105.94 31.0799 105.39C31.5134 104.591 32.2251 103.979 33.0799 103.67C33.9467 103.422 34.8393 103.274 35.7399 103.23C36.2199 103.14 36.5799 102.87 37.0699 102.81C37.7751 102.761 38.4765 102.668 39.1699 102.53C41.3799 102.04 43.4299 103.22 45.5999 103.21C46.5999 103.21 47.5999 103.21 48.5999 103.21C49.0731 103.194 49.5429 103.124 49.9999 103C50.2623 102.978 50.5166 102.899 50.7448 102.767C50.973 102.636 51.1693 102.456 51.3199 102.24C51.6047 101.939 51.7959 101.562 51.8703 101.154C51.9448 100.747 51.8993 100.326 51.7394 99.9438C51.5795 99.5616 51.3121 99.2339 50.9696 99.0007C50.6271 98.7675 50.2242 98.6388 49.8099 98.6301C48.9264 98.5249 48.0335 98.5249 47.1499 98.6301C45.9165 98.9831 44.6553 99.2306 43.3799 99.3701C42.1275 99.5653 40.8524 99.5653 39.5999 99.3701C39.262 99.1948 38.9627 98.9534 38.7199 98.6601C38.3116 98.0616 37.8003 97.5402 37.2099 97.1201C35.8045 96.1657 34.2071 95.5308 32.5299 95.2601C31.0199 95.0001 29.1599 95.6601 27.6899 95.2601C24.3799 94.3301 28.3999 88.7101 29.5899 87.5701C31.2299 85.9901 33.8199 85.0501 35.8999 84.2301C37.4599 83.6201 39.2699 83.8901 40.8999 83.4101C40.6699 82.0001 36.8399 82.8601 35.9999 83.0001C34.2799 83.3201 32.5299 83.5601 30.8199 83.9201C28.6432 84.4588 26.5622 85.329 24.6499 86.5001C22.5036 87.6358 20.4266 88.8981 18.4299 90.2801C15.7599 92.2801 13.8699 95.0101 11.6999 97.4801L10.3799 99.0001C9.23327 97.2401 8.1666 95.4201 7.17993 93.5401C7.53993 93.0901 7.91993 92.6601 8.31993 92.2301C8.93993 91.5601 9.53993 90.8801 10.1499 90.2301C10.829 89.5329 11.5994 88.9307 12.4399 88.4401C15.4399 86.4401 18.1599 84.2501 21.7999 83.5101C24.1899 83.0201 26.4899 82.1601 28.8999 81.7101C31.7899 81.1701 34.6399 80.4601 37.5399 79.9101C39.3188 79.5558 41.1263 79.365 42.9399 79.3401C43.9276 79.3819 44.9073 79.5362 45.8599 79.8001C50.8599 80.9001 55.9599 82.1201 60.9399 83.5101C66.8799 85.1701 73.0899 85.6601 78.9399 87.5101C81.5399 88.3101 84.2299 88.9601 86.7699 89.9501C89.1199 90.8701 91.2699 92.4101 93.5599 93.4701C95.7554 94.4901 97.8569 95.7015 99.8399 97.0901C101.37 98.1701 102.99 99.0901 104.49 100.21C105.6 101.07 106.39 102.21 107.49 103.05C108.536 103.907 109.391 104.973 110 106.18C110.25 106.64 110.57 107.15 110.89 107.67Z" fill="#C4B0B8"/>
</g>
<g style="mix-blend-mode:multiply" opacity="0.5">
<path fill-rule="evenodd" clip-rule="evenodd" d="M92.51 121.44C91.46 121.97 90.4 122.44 89.32 122.93C87.82 122.51 86.21 122.36 84.77 121.93C83.13 121.45 81.66 120.51 80 120.02C78.54 119.59 77.06 119.38 75.62 118.91C71.9356 117.784 68.1569 116.994 64.33 116.55C61.6075 116.076 58.828 116.025 56.09 116.4C53.6573 116.737 51.2489 117.232 48.88 117.88C46.23 118.66 43.64 118.98 41.21 120.34C40.21 120.9 39.36 121.6 38.39 122.15C38.19 122.257 37.99 122.357 37.79 122.45L36.79 122.01C35.1567 121.243 33.5667 120.41 32.02 119.51C31.52 119.223 31.02 118.923 30.52 118.61C31.09 118.38 31.68 118.17 32.29 117.97C34.19 117.35 36.03 116.51 37.97 116.04C40.09 115.53 42.35 115.29 44.51 114.92C49.87 114 55.22 113.67 60.61 113.07C63.7412 112.649 66.9051 112.521 70.06 112.69C73.5577 112.842 77.022 113.437 80.37 114.46C81.2 114.75 82.1 115.05 82.9 115.4C83.7 115.75 84.4 116.46 85.25 116.85C86.1 117.24 86.82 117.43 87.58 117.73C88.3995 118.052 89.1522 118.524 89.8 119.12C90.7822 119.796 91.6906 120.574 92.51 121.44Z" fill="#C4B0B8"/>
</g>
</g>
<g style="mix-blend-mode:multiply" opacity="0.65">
<g style="mix-blend-mode:multiply" opacity="0.65">
<path fill-rule="evenodd" clip-rule="evenodd" d="M79.41 34.2299C79.2 35.6099 78 36.8099 77.13 37.8699C76.53 38.5999 76.13 39.5199 75.52 40.1999C75.2991 40.4247 75.0581 40.6289 74.8 40.8099C74.42 41.0999 74.49 41.0099 74.05 40.8999C73.5201 40.7787 73.0089 40.587 72.53 40.3299C71.8982 40.0357 71.2227 39.8466 70.53 39.7699C69.33 39.5399 68.15 39.3299 66.96 39.0499C65.61 38.7399 64.28 38.4199 62.96 38.1599C61.0668 37.7683 59.2671 37.0145 57.66 35.9399C57.174 35.5761 56.6664 35.2421 56.14 34.9399C55.58 34.6699 54.92 34.5399 54.34 34.2899C53.6929 34.0621 53.0671 33.7777 52.47 33.4399C51.9664 33.0567 51.5561 32.5643 51.27 31.9999C51.0127 31.598 50.7287 31.2138 50.42 30.8499C49.949 30.4159 49.399 30.0764 48.8 29.8499C47.8602 29.5073 46.8553 29.3809 45.86 29.4799C45.28 29.4799 44.74 29.6399 44.16 29.6599C43.9028 29.693 43.6487 29.7465 43.4 29.8199C43.0171 29.8448 42.6329 29.8448 42.25 29.8199C41.66 29.8699 41.17 30.0199 40.55 30.0199H39.05C38.1414 29.9054 37.2191 30.0511 36.39 30.4399C36.23 30.5399 35.74 30.8199 35.67 31.0099C35.6 31.1999 35.84 31.5199 36.05 31.6799C36.5585 32.154 37.216 32.4368 37.91 32.4799C38.91 32.4799 39.76 32.2899 40.73 32.2899C42.1932 32.2443 43.6578 32.3145 45.11 32.4999C45.7017 32.5805 46.278 32.749 46.82 32.9999C47.17 33.1799 47.21 33.4399 47.35 33.7599C47.0612 34.0294 46.6848 34.1857 46.29 34.1999C45.98 34.1999 45.64 34.1999 45.29 34.1999C44.6489 34.2398 44.011 34.32 43.38 34.4399C42.25 34.6199 41.12 34.7399 40 34.9199C39.18 35.0599 38.32 34.8499 37.51 35.0099C36.7232 35.1351 35.9263 35.1853 35.13 35.1599C34.2208 35.0099 33.2949 34.9897 32.38 35.0999C30.6 35.5699 29.08 36.6299 27.31 37.0999C24.87 37.7399 22.41 38.3099 19.97 39.0299C18.525 39.5071 17.1523 40.18 15.89 41.0299C14.79 41.7199 13.71 42.5099 12.56 43.1099C12.0231 43.3758 11.5022 43.673 11 43.9999C10.58 44.2799 10.09 44.3899 9.66999 44.6499C8.50999 45.3799 7.17999 45.8199 5.98999 46.4999C5.35999 46.8699 4.71999 47.1399 4.06999 47.4999C3.37204 47.8831 2.70353 48.3176 2.06999 48.7999L1.73999 49.0399C2.69314 45.117 4.01571 41.2933 5.68999 37.6199C6.07999 36.7599 6.48999 35.8999 6.92999 35.0599C8.79999 34.3099 10.72 33.6499 12.51 32.7599C13.36 32.3399 14.26 32.0799 15.12 31.7599C15.7723 31.4845 16.4401 31.2475 17.12 31.0499C17.86 30.8399 18.54 30.4399 19.29 30.2699C19.8 30.1599 20.29 30.1399 20.83 30.0599C21.37 29.9799 21.9 29.7499 22.45 29.6299C23.2744 29.5116 24.1088 29.4781 24.94 29.5299H29.1C31.7773 29.5058 34.45 29.302 37.1 28.9199C40.21 28.4999 43.47 28.1399 46.54 27.4099C47.1366 27.2123 47.7182 26.9716 48.28 26.6899C48.9038 26.4292 49.5544 26.2381 50.22 26.1199C51.75 25.8099 53.3 25.7399 54.82 25.4199C56.34 25.0999 57.72 24.2799 59.31 24.0699C61.6936 23.8677 64.0939 24.0024 66.44 24.4699C67.9122 24.6025 69.3687 24.8737 70.79 25.2799C71.34 25.4899 71.97 25.6699 72.5 25.9299C73.0757 26.1197 73.5971 26.4456 74.02 26.8799C74.4358 27.3792 74.7669 27.9434 75 28.5499C75.1857 28.9296 75.4439 29.2693 75.76 29.5499C76.1157 30.004 76.4962 30.438 76.9 30.8499C77.49 31.4299 78.05 32.0299 78.61 32.6399C78.8458 32.8354 79.0386 33.0776 79.1763 33.3512C79.314 33.6248 79.3936 33.924 79.41 34.2299Z" fill="#C4B0B8"/>
</g>
<g style="mix-blend-mode:multiply" opacity="0.65">
<path fill-rule="evenodd" clip-rule="evenodd" d="M4.75008 52.8C5.22008 52.11 5.75008 51.56 6.33008 50.92C7.16551 50.0344 8.08668 49.2338 9.08008 48.53C11.1303 46.9003 13.334 45.4736 15.6601 44.27C17.6601 43.21 19.7801 42.4 21.8001 41.38C23.1823 40.6675 24.6465 40.1268 26.1601 39.77C27.2707 39.4091 28.4122 39.1513 29.5701 39C31.664 39.0035 33.7553 39.1471 35.8301 39.43C37.5977 39.4395 39.3282 39.9379 40.8301 40.87C41.4401 41.3 41.9501 41.77 42.5201 42.23C43.3036 42.7893 44.1333 43.2811 45.0001 43.7C45.7101 44.1 46.4801 44.4 47.1601 44.84C47.4901 45.06 48.1001 45.38 48.2701 45.78C48.6101 46.59 47.6001 47.48 47.0101 47.78C46.7801 47.91 46.6301 48.08 46.4201 48.2C46.0433 48.333 45.6492 48.4105 45.2501 48.43C43.4301 48.8 41.6201 49.15 39.7701 49.43C37.9201 49.71 36.0901 49.8 34.2601 50.05C32.604 50.302 30.9344 50.4556 29.2601 50.51C28.4501 50.51 27.6201 50.66 26.8101 50.73C26.0001 50.8 24.8101 50.81 23.9101 50.94C23.2123 51.05 22.5064 51.1001 21.8001 51.09C20.7934 51.1271 19.7908 51.2374 18.8001 51.42C16.8001 51.67 14.9801 52.42 13.0301 52.87C11.9701 53.09 10.9501 53.32 9.90008 53.56C8.85008 53.8 7.90008 54.01 6.90008 54.17C6.33899 54.2704 5.77007 54.3206 5.20008 54.32C5.00072 54.3452 4.79876 54.3014 4.62775 54.1958C4.45674 54.0903 4.327 53.9295 4.26008 53.74C4.03008 53.35 4.06008 53.3 4.26008 52.87C4.33231 52.6111 4.48243 52.3807 4.69008 52.21C4.82008 52 5.12008 52.07 4.75008 52.8Z" fill="#C4B0B8"/>
</g>
<g style="mix-blend-mode:multiply" opacity="0.65">
<path fill-rule="evenodd" clip-rule="evenodd" d="M44.9199 41.43C44.9199 41.79 44.8299 42.05 45.1199 42.3C45.4287 42.5043 45.7656 42.6626 46.1199 42.77C46.7698 42.9527 47.4479 43.0137 48.1199 42.95C48.3193 42.9628 48.5184 42.92 48.6949 42.8265C48.8715 42.7329 49.0186 42.5922 49.1199 42.42C49.3099 42.04 49.1999 41.94 48.8699 41.62C48.3358 40.9976 47.5924 40.5922 46.7799 40.48C46.2899 40.48 45.2899 40.61 45.2699 41.24L44.9199 41.43Z" fill="#C4B0B8"/>
</g>
<g style="mix-blend-mode:multiply" opacity="0.65">
<path fill-rule="evenodd" clip-rule="evenodd" d="M33.74 88.7998C32.6336 89.3527 31.6895 90.183 31 91.2098C30.8184 91.4484 30.72 91.74 30.72 92.0398C30.72 92.3397 30.8184 92.6313 31 92.8698C31.4801 93.3586 32.0974 93.6899 32.77 93.8198C33.77 94.0398 34.83 94.2498 35.84 94.3898C36.9254 94.5599 38.0291 94.5801 39.12 94.4498C39.83 94.3598 40.5 94.2398 41.2 94.0898C41.9383 93.9834 42.6856 93.9532 43.43 93.9998C44.21 93.9998 44.99 93.9998 45.77 93.9998C46.34 93.9998 46.9 94.1498 47.47 94.1998C49.0418 94.3593 50.6293 94.2408 52.16 93.8498C52.7004 93.7663 53.2094 93.5421 53.6359 93.1999C54.0623 92.8576 54.3914 92.4093 54.59 91.8998C54.7684 91.4896 54.8604 91.0471 54.8604 90.5998C54.8604 90.1525 54.7684 89.71 54.59 89.2998C53.7375 88.0029 52.4446 87.0581 50.95 86.6398C49.1121 86.0022 47.1929 85.6284 45.25 85.5298C42.9663 85.3561 40.67 85.5932 38.47 86.2298C37.6634 86.5224 36.8724 86.8562 36.1 87.2298C35.4429 87.4754 34.8235 87.812 34.26 88.2298L33.6 88.7398C33.42 88.8998 33.19 89.1798 33.74 88.7998Z" fill="#C4B0B8"/>
</g>
<g style="mix-blend-mode:multiply" opacity="0.65">
<path fill-rule="evenodd" clip-rule="evenodd" d="M44.3499 83.11C44.7104 82.865 45.1341 82.7296 45.5699 82.72C45.9241 82.7712 46.2643 82.8937 46.5699 83.08C46.6809 83.1284 46.7788 83.2027 46.8554 83.2966C46.9319 83.3905 46.9849 83.5014 47.0099 83.62C47.0099 83.87 47.0099 83.89 46.7199 84C46.173 84.1951 45.5791 84.2161 45.0199 84.06C44.8114 84.0215 44.6156 83.9322 44.4499 83.8C44.3499 83.68 44.2899 83.38 44.5099 83.36L44.3499 83.11Z" fill="#C4B0B8"/>
</g>
<g style="mix-blend-mode:multiply" opacity="0.65">
<path fill-rule="evenodd" clip-rule="evenodd" d="M57.74 86.8999C57.8187 87.1383 57.9484 87.3567 58.12 87.5399H58.31C58.5391 87.6151 58.773 87.6753 59.01 87.7199C59.6325 87.7648 60.2575 87.7648 60.88 87.7199C61.98 87.7199 64.05 89.2799 64.38 87.4899C64.68 85.8999 62.53 85.3899 61.38 85.0999C60.8397 84.9302 60.2603 84.9302 59.72 85.0999C59.3464 85.2034 58.9818 85.3371 58.63 85.4999C58.3774 85.6415 58.1639 85.8434 58.0086 86.0878C57.8532 86.3321 57.761 86.6112 57.74 86.8999Z" fill="#C4B0B8"/>
</g>
<g style="mix-blend-mode:multiply" opacity="0.65">
<path fill-rule="evenodd" clip-rule="evenodd" d="M90.33 107.36C90.938 107.145 91.5637 106.984 92.2 106.88C93.2924 106.769 94.3956 106.851 95.46 107.12C96.1289 107.28 96.7575 107.577 97.3064 107.992C97.8553 108.407 98.3127 108.93 98.65 109.53C98.88 110.03 99.14 110.83 98.65 111.29C97.99 111.94 96.56 111.82 95.73 111.79C94.5174 111.726 93.3241 111.459 92.2 111C91.46 110.72 90.7 110.47 89.97 110.18C89.4362 110 88.9552 109.691 88.57 109.28C88.3961 109.113 88.2694 108.903 88.2026 108.671C88.1359 108.439 88.1316 108.194 88.19 107.96C88.31 107.63 88.84 107.34 89.19 107.22C89.3788 107.159 89.5786 107.139 89.7755 107.164C89.9725 107.188 90.1617 107.255 90.33 107.36Z" fill="#C4B0B8"/>
</g>
<g style="mix-blend-mode:multiply" opacity="0.65">
<path fill-rule="evenodd" clip-rule="evenodd" d="M64.18 113.81C64.6698 113.871 65.1545 113.968 65.63 114.1C65.52 114.28 65.73 114.37 65.68 114.56C65.63 114.75 65.18 114.99 64.98 115.07C64.5526 115.198 64.1043 115.243 63.66 115.2C63.0289 115.256 62.393 115.225 61.77 115.11C61.22 114.94 60.9 114.6 61.48 114.25C62.3232 113.86 63.2567 113.708 64.18 113.81Z" fill="#C4B0B8"/>
</g>
<g style="mix-blend-mode:multiply" opacity="0.65">
<path fill-rule="evenodd" clip-rule="evenodd" d="M97.15 79.3198C97.1117 79.5619 97.1358 79.8097 97.22 80.0398C97.3426 80.2539 97.4867 80.4549 97.65 80.6398C98.1667 81.2916 98.7462 81.8912 99.38 82.4298C99.7875 82.7393 100.223 83.0104 100.68 83.2398C101.13 83.5355 101.609 83.7835 102.11 83.9798C102.787 84.2261 103.5 84.3612 104.22 84.3798C105.07 84.3798 105.46 83.7398 105.48 82.9198C105.48 82.2898 104.97 81.7698 104.61 81.3098C104.101 80.7289 103.542 80.1936 102.94 79.7098C101.71 78.6198 100.35 77.7098 99.04 76.7098C98.64 76.4098 97.39 75.5598 96.89 76.1098C96.6965 76.4438 96.5771 76.8156 96.54 77.1998C96.47 77.5598 96.45 77.9598 96.4 78.3298C96.29 79.0698 96.57 80.0898 97.15 79.3198Z" fill="#C4B0B8"/>
</g>
<g style="mix-blend-mode:multiply" opacity="0.65">
<path fill-rule="evenodd" clip-rule="evenodd" d="M118.5 56.46C117.692 55.6003 116.741 54.8865 115.69 54.35C114.24 53.46 112.91 52.43 111.54 51.43C110.834 50.8302 110.01 50.3871 109.12 50.13C108.514 49.9787 107.899 49.8619 107.28 49.78C106.172 49.7217 105.061 49.7585 103.96 49.89C101.86 49.9845 99.7668 50.1948 97.69 50.52C96.42 50.75 92.77 51.78 94.43 53.67C94.8522 54.0372 95.3563 54.2978 95.9 54.43C96.57 54.7 97.21 55.02 97.9 55.26C99.54 55.84 101.19 56.45 102.85 56.95C104.22 57.37 105.61 57.68 106.97 58.13C108.17 58.54 109.38 58.94 110.6 59.29C111.827 59.6273 113.089 59.8219 114.36 59.87C114.98 59.87 115.6 59.99 116.22 60.01C116.894 60.0453 117.57 59.971 118.22 59.79C119.47 59.34 119.59 57.9 118.5 56.46Z" fill="#C4B0B8"/>
</g>
<g style="mix-blend-mode:multiply" opacity="0.65">
<path fill-rule="evenodd" clip-rule="evenodd" d="M120.64 57.0899C120.64 57.2899 120.64 57.5799 120.75 57.7499C120.908 57.872 121.083 57.9697 121.27 58.0399C121.532 58.2176 121.835 58.3275 122.15 58.3599C122.68 58.3599 122.9 58.0499 122.8 57.5299C122.74 57.2399 122.39 57.0299 122.19 56.8299C121.97 56.6648 121.707 56.5659 121.432 56.5446C121.158 56.5234 120.883 56.5807 120.64 56.7099V57.0899Z" fill="#C4B0B8"/>
</g>
<g style="mix-blend-mode:multiply" opacity="0.65">
<path fill-rule="evenodd" clip-rule="evenodd" d="M96 20.2098C97.4529 19.6538 99.0324 19.5152 100.56 19.8098C101.299 19.9821 102 20.2871 102.63 20.7098C103.16 21.0798 103.57 21.5698 104.05 21.9798C104.73 22.5598 105.45 22.8898 105.86 23.7198C106.17 24.3398 105.72 24.7198 105.12 24.8598C104.52 24.9174 103.915 24.8388 103.35 24.6298C102.64 24.4298 101.95 24.1798 101.25 23.9398C100.55 23.6998 99.95 23.5398 99.31 23.2698C98.84 23.0698 98.37 22.8598 97.9 22.6698C97.1518 22.3958 96.4702 21.9664 95.9 21.4098C95.71 21.2198 95.58 21.1098 95.58 20.8398C95.5769 20.7044 95.6155 20.5713 95.6907 20.4586C95.7658 20.3459 95.8738 20.259 96 20.2098Z" fill="#C4B0B8"/>
</g>
<g style="mix-blend-mode:multiply" opacity="0.65">
<path fill-rule="evenodd" clip-rule="evenodd" d="M106 25.51C106.72 25.21 107.38 24.88 108.06 25.38C108.256 25.5061 108.406 25.6916 108.489 25.9093C108.572 26.1271 108.583 26.3656 108.52 26.59C108.35 27.04 107.39 26.95 107.02 26.89C106.372 26.754 105.79 26.4013 105.37 25.89L106 25.51Z" fill="#C4B0B8"/>
</g>
<g style="mix-blend-mode:multiply" opacity="0.65">
<path fill-rule="evenodd" clip-rule="evenodd" d="M32.5999 16.4199C31.2009 16.9462 29.8603 17.6164 28.5999 18.4199C27.0201 19.2754 25.6768 20.5088 24.6899 22.0099C24.4686 22.398 24.3559 22.8384 24.3634 23.285C24.3709 23.7317 24.4984 24.1681 24.7326 24.5485C24.9668 24.9289 25.299 25.2393 25.6944 25.4471C26.0897 25.655 26.5338 25.7527 26.9799 25.7299C28.1888 25.8204 29.4014 25.6109 30.5099 25.1199C31.397 24.7931 32.3204 24.5749 33.2599 24.4699C34.5799 24.1699 35.8599 23.7699 37.1599 23.4699C37.8899 23.2999 38.5699 23.0099 39.2999 22.8399C39.9911 22.6568 40.6614 22.402 41.2999 22.0799C42.5799 21.5099 43.7999 20.8499 45.0199 20.1699C45.8599 19.7099 47.1599 19.0699 47.4799 18.0999C47.7099 17.4199 47.7599 16.7499 47.0399 16.3299C46.6161 16.1478 46.1611 16.0493 45.6999 16.0399C45.0899 15.9799 44.4599 16.0399 43.8499 16.0399C43.2399 16.0399 42.6899 15.9199 42.0999 15.8999C41.5099 15.8799 40.6899 15.8999 39.9699 15.8499C38.7549 15.6751 37.5262 15.6148 36.2999 15.6699C35.7599 15.6699 35.2999 15.8799 34.7199 15.9099C34.2511 15.9559 33.7905 16.0635 33.3499 16.2299C32.6299 16.4399 31.5999 16.6499 32.5999 16.4199Z" fill="#C4B0B8"/>
</g>
<g style="mix-blend-mode:multiply" opacity="0.65">
<path fill-rule="evenodd" clip-rule="evenodd" d="M47.76 15.5299C48.3722 15.9261 49.0811 16.1474 49.81 16.1699C50.6062 16.2548 51.4114 16.1661 52.17 15.9099C52.72 15.6899 53.62 15.0299 52.88 14.4699C52.14 13.9099 51.2 14.1499 50.44 14.1399C49.906 14.081 49.3664 14.1815 48.8895 14.4289C48.4125 14.6763 48.0195 15.0594 47.76 15.5299Z" fill="#C4B0B8"/>
</g>
<g style="mix-blend-mode:multiply" opacity="0.65">
<path fill-rule="evenodd" clip-rule="evenodd" d="M57 91.0698C57.81 91.1398 58.94 91.4998 59.69 91.0698C59.9697 90.9229 60.2205 90.7264 60.43 90.4898C60.82 89.9798 60.58 89.5498 59.99 89.3898C59.06 89.1498 56.99 89.7898 57.19 91.0598L57 91.0698Z" fill="#C4B0B8"/>
</g>
<g style="mix-blend-mode:multiply" opacity="0.65">
<path fill-rule="evenodd" clip-rule="evenodd" d="M53.0601 103.2C53.8027 102.225 54.7921 101.467 55.926 101.003C57.06 100.539 58.2973 100.386 59.5101 100.56C60.7187 100.813 61.8911 101.216 63.0001 101.76C63.3281 101.858 63.6314 102.025 63.8901 102.25C64.0201 102.39 64.0601 102.56 64.2201 102.67C63.7628 103.389 63.0468 103.904 62.2201 104.11C61.4652 104.234 60.6949 104.234 59.9401 104.11C59.5039 103.962 59.0599 103.839 58.6101 103.74C57.6558 103.645 56.6944 103.645 55.7401 103.74C55.2683 103.887 54.7704 103.932 54.2801 103.87C53.9252 103.72 53.5894 103.529 53.2801 103.3C53.3401 103.11 53.6301 103 53.0601 103.2Z" fill="#C4B0B8"/>
</g>
<g style="mix-blend-mode:multiply" opacity="0.65">
<path fill-rule="evenodd" clip-rule="evenodd" d="M66.3301 101.87C66.4001 102.95 66.6201 102.87 67.6501 102.87C68.1501 102.87 68.6001 102.47 68.4201 101.87C68.3101 101.52 67.9601 101.43 67.6501 101.31C67.4452 101.174 67.1973 101.118 66.9538 101.153C66.7103 101.188 66.4882 101.311 66.3301 101.5V101.87Z" fill="#C4B0B8"/>
</g>
<g style="mix-blend-mode:multiply" opacity="0.65">
<path fill-rule="evenodd" clip-rule="evenodd" d="M10.8101 72.6899C10.9001 71.5799 11.5701 71.1499 12.4001 70.4199C13.6324 69.3438 15.0091 68.4451 16.4901 67.7499C19.4622 66.4544 22.6783 65.8132 25.9201 65.8699C27.2401 65.8699 28.5401 65.8699 29.8501 65.9599C30.8451 65.9185 31.8383 66.0784 32.7701 66.4299C32.9785 66.5306 33.1486 66.6961 33.255 66.9016C33.3614 67.1072 33.3982 67.3416 33.3601 67.5699C33.2101 68.3099 32.0801 68.4999 31.4701 68.7199C30.5301 69.0499 29.5401 69.1999 28.5801 69.4599C27.1683 69.845 25.7877 70.3364 24.4501 70.9299C22.1901 71.9299 19.9101 72.9299 17.5901 73.8299C16.6148 74.1726 15.6108 74.427 14.5901 74.5899C13.7543 74.8349 12.8658 74.8349 12.0301 74.5899C11.7566 74.4944 11.5167 74.3217 11.3392 74.0928C11.1618 73.8639 11.0544 73.5885 11.0301 73.2999C10.9401 72.8099 11.0901 71.5799 10.8101 72.6899Z" fill="#C4B0B8"/>
</g>
<g style="mix-blend-mode:multiply" opacity="0.65">
<path fill-rule="evenodd" clip-rule="evenodd" d="M35.6299 66.82C36.0016 67.3024 36.5337 67.6358 37.1299 67.76C37.6995 67.9847 38.2994 68.1229 38.9099 68.17C39.6399 68.1 40.1499 67.48 39.5299 66.93C38.5299 66 36.8699 66.22 35.6299 66.44V66.82Z" fill="#C4B0B8"/>
</g>
<g style="mix-blend-mode:multiply" opacity="0.65">
<path fill-rule="evenodd" clip-rule="evenodd" d="M1.71997 75.15C3.71997 74.45 5.60997 73.59 7.71997 73.63C8.71997 73.63 9.05997 74.16 9.06997 75.15C8.95991 76.4298 8.42077 77.635 7.53997 78.57C7.12997 79.05 6.60997 79.43 6.21997 79.94C5.97297 80.3055 5.68437 80.6411 5.35997 80.94C5.08997 81.16 4.50997 81.71 4.17997 81.58C4.00997 81.52 3.77997 81.09 3.66997 80.95C3.44031 80.6877 3.23293 80.4068 3.04997 80.11C2.69932 79.3654 2.49237 78.5614 2.43997 77.74C2.22968 76.8978 2.1024 76.037 2.05997 75.17L1.71997 75.15Z" fill="#C4B0B8"/>
</g>
<g style="mix-blend-mode:multiply" opacity="0.65">
<path fill-rule="evenodd" clip-rule="evenodd" d="M95.5099 56.5898C95.3018 56.7813 95.1674 57.0396 95.1299 57.3198C95.5585 57.7171 96.0397 58.0535 96.5599 58.3198C97.0464 58.4999 97.5538 58.6175 98.0699 58.6698C98.428 58.6752 98.784 58.6141 99.1199 58.4898C99.4499 58.3798 99.4399 58.2998 99.3499 58.0598C99.2599 57.8198 98.9499 57.6198 98.8199 57.4498C98.5599 57.1198 98.4299 56.8198 98.0299 56.6298C97.2301 56.3099 96.3698 56.1699 95.5099 56.2198V56.5898Z" fill="#C4B0B8"/>
</g>
<g style="mix-blend-mode:multiply" opacity="0.65">
<path fill-rule="evenodd" clip-rule="evenodd" d="M91.53 29.49C92.94 31.49 93.78 33.89 94.95 36.04C95.5617 37.1862 96.5561 38.0815 97.76 38.57C98.44 38.84 99.18 38.88 99.86 39.16C100.41 39.3298 100.987 39.3909 101.56 39.34C101.95 39.34 102.64 39.47 102.98 39.25C103.85 38.6899 103.5 36.7299 103.19 35.9799C102.651 34.6231 101.849 33.3861 100.83 32.34C100.238 31.7681 99.6032 31.2431 98.93 30.77C98.2408 30.3604 97.51 30.0252 96.75 29.77C95.8125 29.3267 94.787 29.101 93.75 29.11C93.4531 29.0496 93.147 29.0496 92.85 29.11C92.62 29.23 92.6 29.46 92.28 29.49C92.31 29.58 92.3 29.63 91.53 29.49Z" fill="#C4B0B8"/>
</g>
<g style="mix-blend-mode:multiply" opacity="0.65">
<path fill-rule="evenodd" clip-rule="evenodd" d="M94.1799 37.2598C93.7099 37.9898 93.5799 38.2598 94.1799 38.7798C94.5499 39.1298 95.0699 38.9298 94.9599 38.3898C94.8499 37.8498 94.1799 37.1498 93.6199 37.2598H94.1799Z" fill="#C4B0B8"/>
</g>
<g style="mix-blend-mode:multiply" opacity="0.65">
<path fill-rule="evenodd" clip-rule="evenodd" d="M82.6199 18.1198C83.8053 19.2544 85.3609 19.9221 86.9999 19.9998C87.4599 19.9998 87.9099 19.7298 87.7499 19.2198C87.6699 18.9498 87.3999 18.7598 87.2299 18.5498C86.5103 17.7119 85.5126 17.1616 84.4199 16.9998C83.6599 16.8998 82.5599 16.7598 82.4199 17.7398L82.6199 18.1198Z" fill="#C4B0B8"/>
</g>
<g style="mix-blend-mode:multiply" opacity="0.65">
<path fill-rule="evenodd" clip-rule="evenodd" d="M78.0801 39.9098C78.2801 39.1998 78.3601 38.9098 79.0801 38.6498C79.8001 38.3898 80.0201 38.3098 80.5801 38.7598C81.3201 39.3598 81.5001 40.0598 80.8801 40.7598C80.5301 41.1598 79.6201 41.7598 79.0601 41.3898C78.8416 41.1727 78.6532 40.9272 78.5001 40.6598C78.2601 40.3298 78.3201 40.0998 78.3101 39.6598L78.0801 39.9098Z" fill="#C4B0B8"/>
</g>
<g style="mix-blend-mode:multiply" opacity="0.65">
<path fill-rule="evenodd" clip-rule="evenodd" d="M68.79 41.6199C69.46 42.1899 70.19 42.8399 71.15 42.4799C71.58 42.3199 72.02 42.0299 71.59 41.6599C71.16 41.2899 70.82 41.4699 70.49 41.3899C70.3156 41.2988 70.1218 41.2512 69.925 41.2512C69.7283 41.2512 69.5344 41.2988 69.36 41.3899L68.79 41.6199Z" fill="#C4B0B8"/>
</g>
<g style="mix-blend-mode:multiply" opacity="0.65">
<path fill-rule="evenodd" clip-rule="evenodd" d="M60.45 7.5099C61.33 7.47838 62.2078 7.40161 63.08 7.2799C63.08 6.9999 63.3499 6.7399 63.2999 6.4699C63.2199 6.0299 62.4999 5.8799 62.1399 5.8199C61.5099 5.7099 59.71 6.0599 59.7 6.9399L60.45 7.5099Z" fill="#C4B0B8"/>
</g>
<g style="mix-blend-mode:multiply" opacity="0.65">
<path fill-rule="evenodd" clip-rule="evenodd" d="M69.6401 102.63C69.7098 102.443 69.8336 102.282 69.9957 102.166C70.1579 102.05 70.3509 101.985 70.5501 101.98C70.9755 101.945 71.4038 101.975 71.8201 102.07C72.588 102.247 73.3378 102.495 74.0601 102.81C74.9601 103.13 75.8501 103.51 76.7701 103.81C77.7548 104.071 78.7575 104.258 79.7701 104.37C81.3401 104.6 82.9201 104.74 84.4901 105.01C84.9491 105.093 85.4005 105.214 85.8401 105.37C86.1601 105.49 86.4801 105.49 86.8401 105.58C87.2194 105.632 87.5708 105.808 87.8401 106.08C87.9343 106.173 88.0017 106.29 88.0351 106.419C88.0685 106.547 88.0668 106.682 88.0301 106.81C87.9501 107.08 87.7001 107.29 87.6001 107.57C87.4385 107.966 87.3634 108.392 87.3801 108.82C87.4486 109.236 87.661 109.614 87.9801 109.89C88.3569 110.224 88.6987 110.596 89.0001 111C89.1801 111.27 89.2201 111.46 88.8001 111.35C88.3316 111.198 87.882 110.994 87.4601 110.74C86.6201 110.31 85.8301 109.81 84.9701 109.41C84.4901 109.18 83.9701 109.02 83.5201 108.82C83.0701 108.62 82.6101 108.41 82.1501 108.24C81.2201 107.92 80.3101 107.47 79.4001 107.09C77.9201 106.46 76.4001 105.81 74.9401 105.22C74.2456 104.945 73.5764 104.611 72.9401 104.22C72.6001 104 72.2901 103.71 71.9401 103.51C71.6243 103.361 71.2867 103.263 70.9401 103.22C70.7675 103.15 70.6058 103.056 70.4601 102.94C70.1431 102.678 69.7803 102.478 69.3901 102.35C69.3901 102.35 69.3601 102.27 69.6401 102.63Z" fill="#C4B0B8"/>
</g>
<g style="mix-blend-mode:multiply" opacity="0.65">
<path fill-rule="evenodd" clip-rule="evenodd" d="M56.66 92.2999C56.54 92.3599 55.97 92.5199 55.9 92.7699C55.83 93.0199 55.99 93.0499 56.15 93.1099C56.4286 93.1816 56.713 93.2285 57 93.2499C57.51 93.3299 58 93.4299 58.5 93.5299C59 93.6299 59.31 93.7399 59.73 93.8199C60.15 93.8999 60.78 93.9699 61.29 94.0999C61.8 94.2299 62.17 94.3299 62.63 94.4099C63.09 94.4899 63.72 94.7099 64.29 94.7699C65.48 94.8999 66.68 94.9899 67.87 95.0499C69.0925 95.117 70.2987 95.3629 71.45 95.7799C71.9699 95.9699 72.45 96.1399 73.01 96.3499C73.57 96.5599 73.85 96.7999 74.29 97.0199C75.23 97.4799 76.14 98.0999 77.12 98.4899C78.2115 98.8815 79.3315 99.1891 80.47 99.4099C82.08 99.7599 83.7 100.06 85.32 100.41C87.18 100.82 89.03 101.28 90.87 101.77C91.7215 101.972 92.5494 102.264 93.34 102.64C93.95 102.96 94.58 103.26 95.17 103.64L96.55 104.45C97.01 104.71 97.42 105.04 97.88 105.3C98.2585 105.471 98.6118 105.693 98.93 105.96C99.2089 106.271 99.5061 106.564 99.82 106.84C100.04 107.03 100.22 107.26 100.43 107.46C100.617 107.594 100.779 107.76 100.91 107.95C101.03 108.16 101.131 108.381 101.21 108.61C101.375 108.953 101.558 109.287 101.76 109.61C101.76 109.7 101.82 109.82 101.87 109.91C101.977 110.067 102.101 110.211 102.24 110.34C102.36 110.49 102.44 110.65 102.55 110.79C102.742 110.983 102.945 111.163 103.16 111.33C103.41 111.59 103.69 111.8 103.94 112.07C104.162 112.333 104.298 112.657 104.33 113C104.41 113 104.48 113.08 104.53 113.09C104.58 113.1 104.61 113.09 104.72 113.09C104.928 112.984 105.12 112.85 105.29 112.69C105.87 112.166 106.366 111.555 106.76 110.88C107.034 110.451 107.173 109.949 107.16 109.44C107.148 109.3 107.095 109.167 107.008 109.057C106.921 108.946 106.803 108.864 106.67 108.82C106.2 108.61 105.67 108.56 105.2 108.33C104.73 108.1 104.12 107.81 103.58 107.55C103.25 107.39 102.96 107.17 102.58 107.02C102.226 106.873 101.89 106.685 101.58 106.46C101.029 106.089 100.502 105.685 100 105.25C99.27 104.57 98.46 103.93 97.68 103.31C97.0754 102.796 96.441 102.319 95.78 101.88C95.2365 101.557 94.6509 101.312 94.04 101.15C93.64 101.03 93.23 101.02 92.83 100.94C92.43 100.86 91.95 100.77 91.49 100.72C90.75 100.65 90.03 100.59 89.29 100.56C88.727 100.537 88.1691 100.443 87.63 100.28C87.1917 100.183 86.7703 100.021 86.38 99.7999C86.07 99.5999 85.75 99.4299 85.38 99.2299C85.01 99.0299 84.53 98.6199 84.08 98.3799C83.4599 98.0824 82.8788 97.7095 82.35 97.2699C82.09 97.0199 80.99 96.0099 81.61 95.6999C82.1256 95.5254 82.6843 95.5254 83.2 95.6999C83.417 95.7908 83.6219 95.9084 83.81 96.0499C84.01 96.1599 84.19 96.2999 84.38 96.4099C84.7386 96.5977 85.1226 96.7325 85.52 96.8099C86.27 97.0199 87.01 97.2699 87.77 97.4699C88.5299 97.6699 89.39 98.0499 90.23 98.2399C91.9276 98.4978 93.5869 98.9647 95.17 99.6299C95.9 100.01 96.68 100.27 97.42 100.63C98.16 100.99 98.75 101.37 99.42 101.72C100.426 102.185 101.408 102.702 102.36 103.27C102.704 103.549 102.995 103.888 103.22 104.27C103.45 104.6 103.67 104.95 103.87 105.27C104.243 105.933 104.854 106.43 105.58 106.66C105.561 106.569 105.516 106.485 105.45 106.42C105.29 106.21 105.09 106.02 104.93 105.81C104.656 105.52 104.487 105.147 104.45 104.75C104.42 104.355 104.286 103.975 104.06 103.65C103.53 102.869 102.901 102.16 102.19 101.54C101.81 101.176 101.378 100.87 100.91 100.63C100.42 100.41 99.91 100.23 99.42 100.02C98.42 99.5899 97.42 99.2099 96.42 98.8299C95.42 98.4499 94.18 98.1899 93.05 97.8799C92.52 97.7399 91.97 97.6599 91.45 97.5099L89.45 96.9299C88.3472 96.5792 87.2898 96.0992 86.3 95.4999C85.86 95.2399 85.43 94.9799 84.98 94.7299C84.53 94.4799 83.82 94.1799 83.26 93.8599C82.2933 93.3016 81.2912 92.8072 80.26 92.3799C79.2182 92.0337 78.1471 91.7826 77.06 91.6299C75.99 91.4199 74.91 91.1999 73.83 91.0199C72.58 90.8099 71.37 90.5199 70.11 90.3999C69.11 90.2999 68.11 90.1499 67.11 90.0999C66.5354 90.0299 65.9545 90.0299 65.38 90.0999C64.9547 90.2126 64.545 90.3772 64.16 90.5899C62.7662 91.3768 61.2085 91.8287 59.61 91.9099C59.15 91.9099 58.7 91.9999 58.25 92.0099C57.9135 92.0168 57.5785 92.057 57.25 92.1299C56.72 92.1399 56.49 92.2899 56.66 92.2999Z" fill="#C4B0B8"/>
</g>
<g style="mix-blend-mode:multiply" opacity="0.65">
<path fill-rule="evenodd" clip-rule="evenodd" d="M69.7399 85.8599C69.5218 86.0793 69.3575 86.3463 69.2599 86.6399C69.2099 86.9999 69.6299 87.3099 69.9099 87.4599C70.5591 87.6903 71.2288 87.8577 71.9099 87.9599C72.7499 88.1899 73.5799 88.4699 74.4199 88.7199C75.1901 88.9775 75.9792 89.1747 76.7799 89.3099C77.1099 89.3699 77.6299 89.4899 77.9099 89.2299C78.4899 88.6899 77.7799 88.2299 77.3399 87.8499C76.4844 87.3087 75.5288 86.9448 74.5299 86.7799C73.8706 86.6071 73.2031 86.4669 72.5299 86.3599C72.0199 86.2799 71.5299 86.1499 71.0599 86.0299C70.8599 85.9699 70.6699 86.0299 70.4799 85.9499C70.2899 85.8699 69.9999 85.7199 69.7399 85.8599Z" fill="#C4B0B8"/>
</g>
<g style="mix-blend-mode:multiply" opacity="0.65">
<path fill-rule="evenodd" clip-rule="evenodd" d="M86.3199 119.21C85.9871 118.825 85.5873 118.503 85.1399 118.26C84.2499 117.68 83.1399 117.33 82.2699 116.8C81.3608 116.27 80.3761 115.882 79.3499 115.65C78.5399 115.47 77.7399 115.44 76.9199 115.34C76.4399 115.34 75.9199 115.34 75.4799 115.27C74.957 115.24 74.4328 115.24 73.9099 115.27C73.3999 115.27 72.9099 115.27 72.3899 115.34C71.8699 115.41 71.1599 115.34 70.5499 115.48C70.2499 115.48 69.4699 115.63 69.4499 116.02C69.4299 116.41 69.8399 116.59 70.1199 116.74C70.8086 117.102 71.5464 117.361 72.3099 117.51C73.3699 117.72 74.4399 117.97 75.4999 118.2C76.3999 118.41 77.2999 118.62 78.1999 118.87C78.6099 118.98 78.9699 119.14 79.3699 119.29C79.7699 119.44 80.1899 119.53 80.5899 119.72C81.2841 119.992 81.9917 120.229 82.7099 120.43L83.7099 120.76C84.0599 120.88 84.3399 121.09 84.7099 121.24C85.2848 121.541 85.8877 121.786 86.5099 121.97L88.1099 122.35C88.5499 122.45 89.3799 122.8 89.7599 122.43C90.1399 122.06 89.6199 121.09 89.3199 120.72C88.8299 120.222 88.2496 119.821 87.6099 119.54C87.4306 119.397 87.2228 119.293 87.0004 119.236C86.778 119.179 86.5461 119.17 86.3199 119.21Z" fill="#C4B0B8"/>
</g>
</g>
<path fill-rule="evenodd" clip-rule="evenodd" d="M47.9999 49.5699C47.7799 49.8899 47.5299 50.1799 47.9399 50.5099C48.1876 50.6656 48.4663 50.7652 48.7566 50.8014C49.0469 50.8377 49.3416 50.8099 49.6199 50.7199C50.2299 50.5499 51.1899 49.8799 51.0399 49.1199C50.8899 48.3599 49.6699 48.4099 49.1299 48.5599C48.8176 48.6568 48.5422 48.8465 48.3404 49.1037C48.1385 49.3609 48.0198 49.6735 47.9999 49.9999V49.5699Z" fill="#FF8142"/>
<path fill-rule="evenodd" clip-rule="evenodd" d="M8.2501 52.41C8.0201 52.73 7.7801 53.01 8.1801 53.34C8.4282 53.4989 8.70834 53.601 9.0005 53.639C9.29265 53.677 9.58959 53.65 9.8701 53.56C10.4701 53.39 11.4301 52.72 11.2901 51.96C11.1501 51.2 9.9201 51.25 9.3801 51.39C9.05842 51.4714 8.76925 51.6491 8.55124 51.8993C8.33324 52.1494 8.19678 52.4602 8.1601 52.79L8.2501 52.41Z" fill="#FF8142"/>
<path fill-rule="evenodd" clip-rule="evenodd" d="M83.2901 7.80008C83.0701 8.23008 83.0701 8.17008 83.2901 8.54008C83.5558 8.93662 83.9412 9.23793 84.3901 9.40008C84.7699 9.49045 85.1598 9.53079 85.5501 9.52008C85.9277 9.58012 86.3125 9.58012 86.6901 9.52008C87.0284 9.51386 87.362 9.43986 87.6711 9.30245C87.9803 9.16504 88.2588 8.96701 88.4901 8.72008C88.6392 8.35479 88.6722 7.95242 88.5845 7.56772C88.4968 7.18302 88.2928 6.83467 88.0001 6.57008C87.471 6.02236 86.7786 5.66099 86.0267 5.54018C85.2749 5.41938 84.5041 5.54566 83.8301 5.90008C83.6533 5.97129 83.4951 6.082 83.3677 6.22374C83.2402 6.36547 83.1468 6.53447 83.0947 6.71782C83.0426 6.90117 83.0331 7.09401 83.067 7.28159C83.1009 7.46916 83.1772 7.64652 83.2901 7.80008Z" fill="#FF8142"/>
<path fill-rule="evenodd" clip-rule="evenodd" d="M90.2 10.5401C90.1306 10.4298 90.099 10.2999 90.11 10.1701C90.353 10.0845 90.6197 10.096 90.8544 10.2022C91.0891 10.3084 91.2738 10.5011 91.37 10.7401C91.4473 10.9089 91.4717 11.0971 91.44 11.2801C91.3422 11.4589 91.1873 11.5998 91 11.6801C90.8116 11.7714 90.597 11.7934 90.394 11.7422C90.191 11.691 90.0125 11.5699 89.89 11.4001C89.75 11.2101 89.56 10.7201 89.89 10.6401L90.2 10.5401Z" fill="#FF8142"/>
<path fill-rule="evenodd" clip-rule="evenodd" d="M67.6999 53.9301C67.6316 53.8157 67.6002 53.683 67.6099 53.5501C67.8516 53.4675 68.1158 53.4805 68.3483 53.5865C68.5807 53.6925 68.7638 53.8834 68.8599 54.1201C68.9426 54.2909 68.9671 54.484 68.9299 54.6701C68.8272 54.845 68.6737 54.9845 68.4899 55.0701C68.3019 55.1598 68.0881 55.1798 67.8867 55.1267C67.6853 55.0736 67.5092 54.9508 67.3899 54.7801C67.2499 54.5901 67.0499 54.1001 67.3899 54.0201L67.6999 53.9301Z" fill="#FF8142"/>
<path fill-rule="evenodd" clip-rule="evenodd" d="M118.62 47.59C118.84 48.07 119.22 48.67 119.85 48.52C120.221 48.3753 120.546 48.1322 120.789 47.8168C121.032 47.5014 121.184 47.1257 121.23 46.73C121.322 46.1677 121.293 45.5922 121.145 45.0421C120.996 44.4919 120.732 43.9798 120.37 43.54C120.031 43.1426 119.652 42.7807 119.24 42.46C118.97 42.26 118.77 42.05 118.41 42.08C117.69 42.14 117.41 43.19 117.2 43.76C116.939 44.4209 116.911 45.1509 117.12 45.83C117.332 46.4122 117.633 46.9585 118.01 47.45C118.19 47.67 118.41 47.92 118.62 47.59Z" fill="#FF8142"/>
<path fill-rule="evenodd" clip-rule="evenodd" d="M77.6699 11.6899C77.8899 12.1799 78.2599 12.7799 78.8999 12.6299C79.2679 12.4819 79.5892 12.2376 79.8303 11.9227C80.0713 11.6077 80.2232 11.2337 80.2699 10.8399C80.3649 10.2767 80.3382 9.69978 80.1916 9.14781C80.0449 8.59585 79.7818 8.08168 79.4199 7.63989C79.0757 7.25048 78.6975 6.89241 78.2899 6.56989C78.0199 6.36989 77.8099 6.15989 77.4599 6.18989C76.7299 6.18989 76.4599 7.29989 76.2399 7.85989C75.9845 8.5254 75.9563 9.25672 76.1599 9.93989C76.3763 10.5172 76.6762 11.0596 77.0499 11.5499C77.2399 11.7699 77.4599 11.9999 77.6699 11.6899Z" fill="#FF8142"/>
<path fill-rule="evenodd" clip-rule="evenodd" d="M115.69 48.4399C116.097 48.4652 116.497 48.5634 116.87 48.7299C116.86 48.8531 116.86 48.9768 116.87 49.0999C116.87 49.1799 116.99 49.2899 116.96 49.3699C116.87 49.5999 116.45 49.5999 116.27 49.5699C115.994 49.4946 115.736 49.3655 115.51 49.1899C115.436 49.1559 115.369 49.1074 115.315 49.0473C115.26 48.9872 115.217 48.9167 115.19 48.8399C115.26 48.7799 115.34 48.7299 115.36 48.6299L115.69 48.4399Z" fill="#FF8142"/>
<path fill-rule="evenodd" clip-rule="evenodd" d="M114.8 76.8899C115.21 76.921 115.612 77.019 115.99 77.1799C115.97 77.3024 115.97 77.4274 115.99 77.5499C115.99 77.6299 116.1 77.7399 116.07 77.8199C115.98 78.0499 115.56 78.0499 115.38 78.0199C115.105 77.9481 114.846 77.8223 114.62 77.6499C114.472 77.5745 114.358 77.4459 114.3 77.2899C114.37 77.2299 114.45 77.1799 114.47 77.0799L114.8 76.8899Z" fill="#FF8142"/>
<path fill-rule="evenodd" clip-rule="evenodd" d="M117.39 38.0001C117.52 38.1101 117.7 38.3501 117.88 38.3901C118.06 38.4301 118.4 38.1901 118.56 38.0901C118.711 38.0046 118.833 37.8764 118.911 37.7216C118.99 37.5668 119.02 37.3924 119 37.2201C118.984 37.0403 118.933 36.8655 118.848 36.7059C118.764 36.5462 118.649 36.4049 118.51 36.2901C117.985 35.8961 117.418 35.5608 116.82 35.2901C116.638 35.1934 116.437 35.1388 116.231 35.1301C116.025 35.1215 115.819 35.1591 115.63 35.2401C115.21 35.5501 115.48 36.0701 115.63 36.4401C115.89 36.9314 116.227 37.3772 116.63 37.7601C116.746 37.9437 116.905 38.0963 117.093 38.2043C117.281 38.3124 117.493 38.3728 117.71 38.3801L117.39 38.0001Z" fill="#FF8142"/>
<path fill-rule="evenodd" clip-rule="evenodd" d="M103.21 94.73C103.125 94.9287 103.088 95.1443 103.1 95.36C103.429 95.687 103.852 95.9037 104.31 95.98C104.644 96.0528 104.99 96.0493 105.323 95.9697C105.655 95.89 105.965 95.7363 106.23 95.52C106.493 95.2739 106.68 94.9583 106.77 94.61C106.77 94.33 106.45 94 106.25 93.84C105.756 93.5592 105.173 93.477 104.62 93.61C104.373 93.6501 104.134 93.7277 103.91 93.84C103.58 94.02 103.45 94.34 103.21 94.61V94.73Z" fill="#FF8142"/>
<path fill-rule="evenodd" clip-rule="evenodd" d="M109.15 97.8899C109.585 97.9044 110.007 98.0394 110.37 98.2799C110.24 98.4699 110.25 98.7499 110.01 98.8799C109.751 98.95 109.479 98.95 109.22 98.8799C109.057 98.7771 108.915 98.6449 108.8 98.4899C108.771 98.4352 108.758 98.3734 108.762 98.3115C108.766 98.2497 108.788 98.1903 108.825 98.1402C108.861 98.0901 108.911 98.0513 108.969 98.0282C109.026 98.0052 109.089 97.9988 109.15 98.0099V97.8899Z" fill="#FF8142"/>
<path fill-rule="evenodd" clip-rule="evenodd" d="M50.6701 111.36C51.105 111.375 51.5274 111.51 51.8901 111.75C51.7701 111.94 51.7701 112.22 51.5301 112.34C51.2755 112.415 51.0047 112.415 50.7501 112.34C50.584 112.238 50.4383 112.105 50.3201 111.95C50.2909 111.895 50.2777 111.834 50.2821 111.772C50.2864 111.71 50.3081 111.65 50.3446 111.6C50.3811 111.55 50.431 111.512 50.4886 111.488C50.5462 111.465 50.6091 111.459 50.6701 111.47V111.36Z" fill="#FF8142"/>
<path fill-rule="evenodd" clip-rule="evenodd" d="M117.86 78.94C118.164 79.3896 118.596 79.7379 119.1 79.94C119.7 80.1 119.99 79.74 120.25 79.24C120.475 78.5663 120.516 77.8449 120.37 77.15C120.307 76.4638 120.002 75.8224 119.51 75.34C118.51 74.68 117.78 75.65 117.63 76.55C117.63 76.8 117.52 77.06 117.49 77.31C117.487 77.6279 117.545 77.9435 117.66 78.24C117.701 78.5835 117.789 78.9199 117.92 79.24C118.081 79.4837 118.276 79.7027 118.5 79.89L117.86 78.94Z" fill="#FF8142"/>
<path fill-rule="evenodd" clip-rule="evenodd" d="M54.9999 111.79C55.5963 112.089 56.2663 112.211 56.9299 112.14C57.5058 112.05 58.0765 111.93 58.6399 111.78C59.2199 111.66 60.5299 111.56 60.6399 110.78C60.8099 109.84 59.5099 109.17 58.9099 108.73C58.3181 108.277 57.6361 107.957 56.9099 107.79C56.6268 107.686 56.3255 107.642 56.0245 107.659C55.7236 107.676 55.4293 107.755 55.1599 107.89C54.6454 108.123 54.2231 108.52 53.9599 109.02C53.8641 109.294 53.8433 109.589 53.8996 109.874C53.9558 110.158 54.0871 110.423 54.2799 110.64C54.5699 111.1 54.9999 111.39 54.9999 111.79Z" fill="#FF8142"/>
<path fill-rule="evenodd" clip-rule="evenodd" d="M60.9999 111.89C60.9999 111.5 60.9499 111.36 61.2699 111.25C61.4307 111.209 61.5991 111.209 61.7599 111.25C61.8754 111.321 61.9703 111.422 62.0352 111.541C62.1001 111.66 62.1328 111.794 62.1299 111.93C62.1299 112.17 62.0599 112.43 61.7499 112.38C61.4399 112.33 61.0999 112.03 61.1199 111.87L60.9999 111.89Z" fill="#FF8142"/>
<path fill-rule="evenodd" clip-rule="evenodd" d="M69.8799 6.24993C69.8799 5.86993 69.8799 5.72993 70.1499 5.61993C70.3101 5.57461 70.4797 5.57461 70.6399 5.61993C70.7566 5.69078 70.8529 5.79066 70.9195 5.90983C70.9861 6.02901 71.0207 6.16341 71.0199 6.29993C71.0199 6.53993 70.9399 6.79993 70.6299 6.74993C70.3199 6.69993 69.9999 6.41993 69.9999 6.24993H69.8799Z" fill="#FF8142"/>
<path fill-rule="evenodd" clip-rule="evenodd" d="M9.33008 58.4299C9.33008 58.0499 9.33008 57.9099 9.61008 57.7899C9.77034 57.7451 9.93982 57.7451 10.1001 57.7899C10.2141 57.8604 10.3081 57.9591 10.3729 58.0764C10.4377 58.1938 10.4712 58.3259 10.4701 58.4599C10.4701 58.6999 10.4001 58.9699 10.0901 58.9099C9.78008 58.8499 9.44008 58.5699 9.46008 58.3999L9.33008 58.4299Z" fill="#FF8142"/>
<path fill-rule="evenodd" clip-rule="evenodd" d="M106.2 93.18C106.2 92.8 106.2 92.66 106.47 92.54C106.631 92.4994 106.799 92.4994 106.96 92.54C107.075 92.6129 107.17 92.7133 107.236 92.832C107.302 92.9507 107.338 93.084 107.34 93.22C107.34 93.46 107.26 93.72 106.95 93.67C106.64 93.62 106.31 93.33 106.32 93.16L106.2 93.18Z" fill="#FF8142"/>
<path fill-rule="evenodd" clip-rule="evenodd" d="M70.3701 123.66C70.8333 123.876 71.331 124.008 71.8401 124.05C72.1222 124.021 72.4026 123.978 72.6801 123.92C73.1981 123.854 73.6797 123.618 74.0501 123.25C74.5401 122.66 74.1801 122.25 73.5301 122.16C72.8269 121.964 72.0833 121.964 71.3801 122.16C71.0301 122.3 69.9901 122.78 70.6201 123.3L70.3701 123.66Z" fill="#FF8142"/>
<path fill-rule="evenodd" clip-rule="evenodd" d="M59.5099 68.08C59.3699 68.53 59.2599 68.86 59.6799 69.19C60.0999 69.52 61.1599 69.51 61.7999 69.6C62.4399 69.69 63.7099 69.99 63.2299 68.97C63.0714 68.6359 62.8337 68.3455 62.5374 68.1242C62.2411 67.9028 61.8953 67.7572 61.5299 67.7C61.2027 67.5688 60.8474 67.5229 60.4976 67.5666C60.1477 67.6103 59.8147 67.7423 59.5299 67.95L59.5099 68.08Z" fill="#FF8142"/>
<path fill-rule="evenodd" clip-rule="evenodd" d="M29.3799 70.6301C29.4306 70.507 29.5135 70.3999 29.6199 70.3201C29.8081 70.1894 30.0133 70.0851 30.2299 70.0101C30.5355 69.8987 30.8553 69.8313 31.1799 69.8101C31.2399 69.8101 31.5199 69.8101 31.4599 69.9501C31.3999 70.0901 31.3899 69.9501 31.3599 70.0201C31.287 70.0882 31.2023 70.1424 31.1099 70.1801L30.8599 70.2701C30.7624 70.3286 30.6583 70.3756 30.5499 70.4101C30.4656 70.4215 30.3842 70.4486 30.3099 70.4901C30.1949 70.5567 30.0744 70.6136 29.9499 70.6601C29.7891 70.7308 29.6156 70.7682 29.4399 70.7701C29.3899 70.7701 29.3399 70.7701 29.3099 70.7701C29.2799 70.7701 29.2899 70.6301 29.3799 70.6301Z" fill="#FF8142"/>
<path fill-rule="evenodd" clip-rule="evenodd" d="M35.76 69.0901C36.2736 69.103 36.7838 69.1769 37.28 69.3101C37.28 69.6801 36.81 69.8201 36.52 69.8501C36.3247 69.8807 36.1249 69.86 35.94 69.7901C35.78 69.7101 35.68 69.5101 35.51 69.4701L35.76 69.0901Z" fill="#FF8142"/>
<path fill-rule="evenodd" clip-rule="evenodd" d="M35 40.8C34.0127 40.2107 32.9349 39.7883 31.81 39.55C30.403 39.2753 28.9444 39.4943 27.68 40.17C27.27 40.39 26.42 40.68 26.43 41.31C26.44 41.94 28.01 41.92 28.43 41.93C29.6595 41.9366 30.8854 42.0639 32.09 42.31C33.0131 42.6117 33.999 42.6669 34.95 42.47C35.1428 42.3942 35.3105 42.266 35.4342 42.0999C35.5579 41.9338 35.6327 41.7364 35.65 41.53C35.67 41.16 35.09 40.69 35 40.8Z" fill="#FF8142"/>
<path fill-rule="evenodd" clip-rule="evenodd" d="M36.39 41.1701C36.7 41.3401 37.39 42.0401 37.63 41.4301C37.73 41.1201 37.56 40.9601 37.42 40.7201C37.28 40.4801 37.26 40.4301 36.96 40.3501C36.66 40.2701 36.5 40.2401 36.26 40.5401L36.39 41.1701Z" fill="#FF8142"/>
<path fill-rule="evenodd" clip-rule="evenodd" d="M117.86 60.37C118.521 60.2643 119.191 60.2274 119.86 60.26C120.11 60.32 120.35 60.43 120.59 60.5C121.132 60.6402 121.626 60.9234 122.02 61.32C122.173 61.5006 122.276 61.7176 122.32 61.95C122.32 62.22 122.05 62.48 121.83 62.62C121.474 62.7727 121.084 62.828 120.7 62.78C120.059 62.8044 119.421 62.6741 118.84 62.4C118.5 62.22 117.28 61.25 117.9 60.75L117.86 60.37Z" fill="#FF8142"/>
<path fill-rule="evenodd" clip-rule="evenodd" d="M105.86 82.86C105.57 83.47 105.54 83.52 105.86 84.08C106.24 84.6534 106.81 85.0747 107.47 85.27C107.93 85.45 108.93 85.48 108.86 84.71C108.86 84.1 107.92 83.36 107.48 82.98C106.982 82.5875 106.35 82.4077 105.72 82.48L105.86 82.86Z" fill="#FF8142"/>
<path fill-rule="evenodd" clip-rule="evenodd" d="M60.8301 73.26C61.0106 73.564 61.2588 73.8223 61.5554 74.0148C61.8519 74.2073 62.1889 74.3289 62.5401 74.37C62.8082 74.3929 63.078 74.3563 63.3304 74.263C63.5827 74.1697 63.8114 74.0218 64.0001 73.83C64.5601 73.23 64.0001 72.7 63.4301 72.4C63.2055 72.2439 62.943 72.1513 62.6702 72.132C62.3974 72.1126 62.1244 72.1672 61.8801 72.29C61.7763 72.3396 61.6843 72.4108 61.6101 72.4987C61.536 72.5866 61.4814 72.6894 61.4501 72.8C61.3901 73.15 61.7101 73.33 61.6201 73.64L60.8301 73.26Z" fill="#FFCE42"/>
<path fill-rule="evenodd" clip-rule="evenodd" d="M76.18 55.2599C75.75 54.6399 74.98 53.8299 75.83 53.2599C76.2449 53.0535 76.708 52.9637 77.17 52.9999C77.7255 52.9499 78.2844 52.9499 78.84 52.9999C79.2004 53.0269 79.552 53.1247 79.8745 53.2877C80.1971 53.4508 80.4844 53.6758 80.72 53.9499C81.1235 54.5503 81.3866 55.2339 81.49 55.9499C81.518 56.24 81.4775 56.5327 81.3716 56.8043C81.2657 57.076 81.0975 57.3189 80.8805 57.5135C80.6635 57.7081 80.4037 57.8491 80.1222 57.9249C79.8407 58.0007 79.5454 58.0092 79.26 57.9499C78.823 57.8479 78.3999 57.6934 78 57.4899C77.6692 57.2914 77.3693 57.0455 77.11 56.7599C76.68 56.4299 76.11 56.1899 75.97 55.6399L76.18 55.2599Z" fill="#FFCE42"/>
<path fill-rule="evenodd" clip-rule="evenodd" d="M82.62 53.17C83.1665 53.052 83.6668 52.7775 84.06 52.38C83.77 52.08 83.35 51.57 82.9 51.65C82.28 51.76 82.25 52.26 82.24 52.8L82.62 53.17Z" fill="#FFCE42"/>
<path fill-rule="evenodd" clip-rule="evenodd" d="M68.7201 31.0799C69.2658 30.9598 69.7656 30.6856 70.1601 30.2899C69.8701 29.9899 69.4501 29.4799 69.0001 29.5599C68.3801 29.6699 68.3501 30.1699 68.3501 30.6999L68.7201 31.0799Z" fill="#FFCE42"/>
<path fill-rule="evenodd" clip-rule="evenodd" d="M34.6899 43.6999C35.1299 43.3599 35.5699 42.8299 36.1099 42.6999C36.5281 42.6248 36.9591 42.6734 37.3499 42.8399C37.5299 42.9299 37.8599 43.1699 37.8999 43.3799C37.9799 43.7699 37.6599 43.7899 37.3799 43.8899C36.9716 44.0512 36.5451 44.162 36.1099 44.2199C35.7899 44.2199 34.8599 44.6299 35.1099 43.8399L34.6899 43.6999Z" fill="#FFCE42"/>
<path fill-rule="evenodd" clip-rule="evenodd" d="M51.55 21.7201C52.2222 21.6128 52.8576 21.3415 53.4 20.9301C53.1966 20.6964 52.9386 20.5167 52.649 20.4068C52.3594 20.2968 52.0472 20.2602 51.74 20.3001C51.05 20.4801 50.99 20.6001 50.98 21.3001L51.55 21.7201Z" fill="#FFCE42"/>
<path fill-rule="evenodd" clip-rule="evenodd" d="M55.15 100.54C54.9257 100.253 54.7963 99.9036 54.78 99.5399C55.08 99.3899 55.23 99.0199 55.52 98.8199C55.9227 98.5797 56.4003 98.4977 56.86 98.5899C57.34 98.5899 58.06 98.9499 58.01 99.5899C57.9401 99.8656 57.8017 100.119 57.6077 100.327C57.4137 100.535 57.1703 100.691 56.9 100.78C56.4545 100.903 55.9913 100.951 55.53 100.92L55.15 100.54Z" fill="#FFCE42"/>
<path fill-rule="evenodd" clip-rule="evenodd" d="M71.2499 32.8201C71.0381 32.5454 70.9096 32.2156 70.8799 31.8701C71.1799 31.7101 71.3299 31.3501 71.6199 31.1401C72.0335 30.8897 72.5274 30.8074 72.9999 30.9101C73.4799 30.9101 74.1999 31.2701 74.1499 31.8601C74.0772 32.1408 73.9331 32.3979 73.7316 32.6065C73.5301 32.815 73.278 32.9678 72.9999 33.0501C72.5589 33.1792 72.098 33.2267 71.6399 33.1901L71.2499 32.8201Z" fill="#FFCE42"/>
<path fill-rule="evenodd" clip-rule="evenodd" d="M76.3701 114.19C76.7401 113.92 77.4601 113.27 77.9401 113.75C78.2101 114.02 78.0701 114.34 77.9401 114.61C77.8898 114.74 77.8091 114.856 77.7047 114.948C77.6003 115.04 77.4752 115.106 77.3401 115.14C76.9301 115.24 76.7801 114.93 76.4201 114.91V114.75L76.3701 114.19Z" fill="#FFCE42"/>
<path fill-rule="evenodd" clip-rule="evenodd" d="M47.8701 89.2099C48.4201 89.9099 49.1401 90.6299 49.6001 89.4999C49.7801 89.0599 49.7201 89.0399 49.3901 88.7399C49.2852 88.6033 49.139 88.5042 48.9732 88.4574C48.8075 88.4106 48.631 88.4185 48.4701 88.4799V88.6399L47.8701 89.2099Z" fill="#FFCE42"/>
<g style="mix-blend-mode:soft-light">
<g style="mix-blend-mode:soft-light">
<path fill-rule="evenodd" clip-rule="evenodd" d="M55.59 26.46C55.9746 26.2427 56.372 26.049 56.78 25.88C57.5454 25.4793 58.4093 25.3058 59.27 25.38C60.0514 25.5312 60.8529 25.5482 61.64 25.43C62.64 25.29 63.64 25.21 64.57 25.14C65.1615 25.1347 65.7518 25.1951 66.33 25.32C66.8897 25.4026 67.4372 25.5537 67.96 25.77C68.44 25.98 68.9 26.28 69.36 26.52L71.24 27.52C71.7 27.76 72.24 27.95 72.65 28.22C72.9951 28.451 73.3021 28.7344 73.56 29.06C74.1488 29.6725 74.6748 30.3425 75.13 31.06C75.5165 31.8049 75.7607 32.6155 75.85 33.45C75.93 34.08 75.85 34.94 75.12 35.08C74.875 35.1201 74.625 35.1201 74.38 35.08L73.7 35C73.3218 34.9988 72.9463 35.0631 72.59 35.19C72.2 35.28 71.82 35.38 71.42 35.44C70.8353 35.5538 70.2319 35.5264 69.66 35.36C69.35 35.25 69.03 35.14 68.73 35C68.43 34.86 67.9 34.55 67.46 34.38C67.1383 34.2349 66.8035 34.121 66.46 34.04C66.082 33.9921 65.7004 33.9787 65.32 34C64.2073 34.0151 63.0957 33.9247 62 33.73C60.2982 33.4271 58.6417 32.9096 57.07 32.19C56.4206 31.9201 55.822 31.5413 55.3 31.07C54.9092 30.699 54.5726 30.2748 54.3 29.81C54.0526 29.5014 53.9088 29.1227 53.8891 28.7278C53.8693 28.3328 53.9746 27.9416 54.19 27.61C54.4375 27.3784 54.7091 27.1739 55 27C55.231 26.8615 55.4317 26.6779 55.59 26.46Z" fill="#FFFE90"/>
</g>
<g style="mix-blend-mode:soft-light">
<path fill-rule="evenodd" clip-rule="evenodd" d="M53.32 26.8401C53.0291 26.7274 52.7217 26.6632 52.41 26.6501C52.1386 26.6398 51.8669 26.6599 51.6 26.7101C51.33 26.7601 51.06 26.8301 50.79 26.9001C50.4582 27.0117 50.1397 27.1593 49.84 27.3401C49.62 27.4601 49.12 27.6501 49.15 27.9601C49.18 28.2701 49.46 28.3401 49.59 28.4201C49.7653 28.5335 49.9578 28.618 50.16 28.6701C50.5577 28.8261 50.9697 28.9433 51.39 29.0201C51.6019 29.0455 51.8168 29.0134 52.0121 28.9272C52.2074 28.841 52.3759 28.7038 52.5 28.5301C52.762 28.2273 52.9503 27.8679 53.05 27.4801C53.13 27.1401 52.83 26.8901 53.32 26.8401Z" fill="#FFFE90"/>
</g>
<g style="mix-blend-mode:soft-light">
<path fill-rule="evenodd" clip-rule="evenodd" d="M39.5199 33.38C39.2425 33.4198 38.9684 33.48 38.6999 33.56C38.5599 33.56 38.2699 33.67 38.1799 33.81C38.0899 33.95 38.1799 34.02 38.2899 34.08C38.5015 34.1938 38.7397 34.2491 38.9799 34.24C39.5199 34.24 40.0499 34.15 40.5899 34.14C40.8199 34.14 41.0699 34.14 41.2999 34.08C41.5138 34.0542 41.7227 33.9969 41.9199 33.91C42.0999 33.82 42.2399 33.64 42.1099 33.45C41.9799 33.26 41.5599 33.19 41.2999 33.16C40.8343 33.0799 40.3569 33.1003 39.8999 33.22C39.7705 33.2668 39.6437 33.3202 39.5199 33.38Z" fill="#FFFE90"/>
</g>
<g style="mix-blend-mode:soft-light">
<path fill-rule="evenodd" clip-rule="evenodd" d="M40.8398 46.1599C40.2615 46.2704 39.7088 46.4874 39.2098 46.7999C38.8955 46.96 38.6271 47.1975 38.4298 47.4899C38.1598 48.1099 38.9798 48.2899 39.4298 48.3699C40.0645 48.4365 40.7057 48.4027 41.3298 48.2699C41.6061 48.2499 41.8835 48.2499 42.1598 48.2699C42.5081 48.2291 42.8466 48.1276 43.1598 47.9699C43.5798 47.7999 44.0598 47.5299 44.0798 47.0299C44.1292 46.8464 44.1211 46.6522 44.0567 46.4734C43.9924 46.2946 43.8748 46.1398 43.7198 46.0299C43.4321 45.8172 43.0762 45.7175 42.7198 45.7499C42.0482 45.7256 41.3763 45.7861 40.7198 45.9299L40.8398 46.1599Z" fill="#FFFE90"/>
</g>
<g style="mix-blend-mode:soft-light">
<path fill-rule="evenodd" clip-rule="evenodd" d="M36.2 48.4399C36.3049 48.4658 36.4031 48.514 36.4876 48.5814C36.5722 48.6487 36.6412 48.7335 36.69 48.8299C36.4789 49.0159 36.2248 49.1462 35.9506 49.209C35.6765 49.2719 35.391 49.2653 35.12 49.1899C34.87 49.1899 34.68 48.9799 34.87 48.7699C35.0341 48.6499 35.239 48.5995 35.44 48.6299L36.2 48.4399Z" fill="#FFFE90"/>
</g>
<g style="mix-blend-mode:soft-light">
<path fill-rule="evenodd" clip-rule="evenodd" d="M25 67.3899C24.752 67.4595 24.5207 67.5786 24.32 67.7399C24.27 67.8216 24.2297 67.9088 24.2 67.9999C24.1195 68.1233 24.0767 68.2675 24.0767 68.4149C24.0767 68.5622 24.1195 68.7064 24.2 68.8299C24.47 69.2799 25.15 69.3499 25.62 69.3699C26.414 69.3904 27.2065 69.2893 27.97 69.0699C28.62 68.9099 29.24 68.6699 29.88 68.4899C30.1639 68.4285 30.4444 68.3517 30.72 68.2599C30.8066 68.2112 30.8798 68.1417 30.9329 68.0577C30.9861 67.9738 31.0176 67.8779 31.0245 67.7787C31.0314 67.6796 31.0136 67.5803 30.9727 67.4897C30.9318 67.3991 30.869 67.3202 30.79 67.2599C29.74 66.3099 27.85 66.3899 26.6 66.7799C26.2123 66.9206 25.8376 67.0946 25.48 67.2999L25.15 67.4699C25 67.5399 24.82 67.7599 25 67.3899Z" fill="#FFFE90"/>
</g>
<g style="mix-blend-mode:soft-light">
<path fill-rule="evenodd" clip-rule="evenodd" d="M98.25 77.6201C98.18 77.6801 97.72 77.9601 97.67 78.1501C97.6553 78.2897 97.6553 78.4305 97.67 78.5701C97.675 78.8349 97.7418 79.0948 97.8651 79.3292C97.9884 79.5636 98.1647 79.7659 98.38 79.9201C98.7687 80.1961 99.1969 80.4118 99.65 80.5601C99.7655 80.6214 99.8942 80.6534 100.025 80.6534C100.156 80.6534 100.284 80.6214 100.4 80.5601C101.3 80.0301 100.2 78.9001 99.76 78.4601C99.51 78.2101 99.17 77.5201 98.76 77.6101L98.25 77.6201Z" fill="#FFFE90"/>
</g>
<g style="mix-blend-mode:soft-light">
<path fill-rule="evenodd" clip-rule="evenodd" d="M90.77 74.21C89.8378 73.5932 88.8542 73.0579 87.83 72.61C86.8676 72.0609 85.8647 71.5862 84.83 71.19C83.7842 70.8048 82.702 70.5267 81.6 70.36C79.9403 70.1443 78.2597 70.1443 76.6 70.36C75.92 70.45 75.25 70.61 74.6 70.68C74.28 70.68 73.99 70.83 73.67 70.89C73.58 71.13 73.94 71.29 74.1 71.39C74.4769 71.559 74.8685 71.6929 75.27 71.79C75.69 71.95 76.12 72.08 76.55 72.22C77.55 72.55 78.55 72.9 79.55 73.13C80.76 73.39 82.01 73.54 83.23 73.76C84.45 73.98 85.47 74.34 86.6 74.57C87.3549 74.7758 88.129 74.9031 88.91 74.95C89.2448 74.9898 89.584 74.966 89.91 74.88C90 74.83 90.26 74.58 90.77 74.21Z" fill="#FFFE90"/>
</g>
<g style="mix-blend-mode:soft-light">
<path fill-rule="evenodd" clip-rule="evenodd" d="M73.53 69.7501C73.0967 69.8278 72.6739 69.9553 72.27 70.1301C72.0411 70.2553 71.7952 70.3462 71.54 70.4001C70.9157 70.5202 70.2742 70.5202 69.65 70.4001C69.46 70.4001 66.77 70.0901 67.65 69.4001C68.2359 68.9946 68.938 68.791 69.65 68.8201C70.3862 68.7916 71.1233 68.8385 71.85 68.9601C72.1963 68.9924 72.5345 69.0837 72.85 69.2301C72.95 69.2801 73.02 69.2801 73.05 69.3901C73.08 69.5001 73 69.5601 73.53 69.7501Z" fill="#FFFE90"/>
</g>
<g style="mix-blend-mode:soft-light">
<path fill-rule="evenodd" clip-rule="evenodd" d="M71.6298 71.27C71.4498 71.38 71.2598 71.48 71.0698 71.58C71.2098 71.58 71.2398 71.48 71.3398 71.43C71.5033 71.3624 71.6747 71.3153 71.8498 71.29C72.0298 71.29 72.5098 71.37 72.4898 71.65C72.4898 72.18 71.3698 71.87 71.1598 71.74L71.6298 71.27Z" fill="#FFFE90"/>
</g>
<g style="mix-blend-mode:soft-light">
<path fill-rule="evenodd" clip-rule="evenodd" d="M56.19 68.14C55.71 68.05 55.19 67.98 54.75 67.86C54.0905 67.7385 53.4171 67.7116 52.75 67.78C51.9554 67.7898 51.1668 67.9179 50.41 68.16C50.18 68.25 49.85 68.33 49.75 68.59C49.52 69.23 50.47 69.59 50.9 69.66C51.9029 69.9276 52.9327 70.0819 53.97 70.12C54.43 70.12 54.9 70.12 55.37 70.12C55.8389 70.1998 56.316 70.22 56.79 70.18C57.1332 70.1318 57.4691 70.0411 57.79 69.91C58.03 69.82 58.26 69.79 58.33 69.53C58.49 68.94 57.93 68.53 57.46 68.3C56.99 68.07 56.26 67.75 56.19 68.14Z" fill="#FFFE90"/>
</g>
<g style="mix-blend-mode:soft-light">
<path fill-rule="evenodd" clip-rule="evenodd" d="M36.3898 90.12C36.3898 89.77 36.3898 89.8 36.4898 89.59C36.7052 89.3128 36.9614 89.0701 37.2498 88.87C37.819 88.3131 38.5835 88.0008 39.3798 88C39.5569 88.0368 39.7207 88.1209 39.8537 88.2433C39.9868 88.3658 40.0841 88.522 40.1354 88.6954C40.1867 88.8688 40.1901 89.0529 40.145 89.228C40.1 89.4032 40.0084 89.5628 39.8798 89.69C39.5098 90.0517 39.0844 90.3522 38.6198 90.58C38.2226 90.8231 37.7911 91.0051 37.3398 91.12C37.1631 91.1621 36.9785 91.1584 36.8036 91.1094C36.6286 91.0605 36.469 90.9677 36.3398 90.84C36.2653 90.7654 36.2114 90.6728 36.1833 90.5711C36.1553 90.4694 36.1541 90.3623 36.1798 90.26C36.2998 90.08 36.5298 90 36.3898 90.12Z" fill="#FFFE90"/>
</g>
<g style="mix-blend-mode:soft-light">
<path fill-rule="evenodd" clip-rule="evenodd" d="M100.72 62.55C99.829 61.8248 98.7434 61.3794 97.5999 61.27C97.2699 61.21 95.3599 60.86 95.5999 61.66C95.7499 62.12 96.4399 62.39 96.8199 62.58C97.4299 62.88 98.0299 63.14 98.6599 63.41C99.8899 63.92 101.11 64.41 102.32 65.02C102.779 65.2702 103.253 65.4906 103.74 65.68C103.96 65.75 104.17 65.84 104.33 65.68C104.64 65.29 104.16 64.79 103.92 64.49C103.458 63.9343 102.877 63.4899 102.22 63.19C101.8 63.0183 101.392 62.8178 101 62.59C100.73 62.37 100.47 62.31 100.72 62.55Z" fill="#FFFE90"/>
</g>
<g style="mix-blend-mode:soft-light">
<path fill-rule="evenodd" clip-rule="evenodd" d="M106.21 66.3401H106.29C106.29 66.0201 106.96 65.8101 107.22 65.7901C107.486 65.7601 107.754 65.7601 108.02 65.7901C108.17 65.8278 108.31 65.8974 108.431 65.994C108.552 66.0906 108.65 66.212 108.72 66.3501C109.02 66.8201 109.16 67.6201 108.37 67.4701C107.639 67.3969 106.967 67.0374 106.5 66.4701L106.21 66.3401Z" fill="#FFFE90"/>
</g>
<g style="mix-blend-mode:soft-light">
<path fill-rule="evenodd" clip-rule="evenodd" d="M110.1 68.52C110.531 69.063 111.092 69.4893 111.73 69.76C111.953 69.8584 112.195 69.9033 112.438 69.8911C112.681 69.8789 112.918 69.8101 113.13 69.69C113.69 69.19 113.39 68.21 112.98 67.69C112.618 67.3257 112.16 67.0706 111.66 66.9539C111.159 66.8372 110.636 66.8636 110.15 67.03C109.93 67.1 109.64 67.18 109.53 67.41C109.496 67.5489 109.495 67.6939 109.528 67.833C109.561 67.9721 109.627 68.1013 109.72 68.21L110.1 68.52Z" fill="#FFFE90"/>
</g>
<g style="mix-blend-mode:soft-light">
<path fill-rule="evenodd" clip-rule="evenodd" d="M115.12 70C115.03 69.9 114.36 69.26 114.83 69.14C115.3 69.02 115.42 69.39 115.64 69.56C115.86 69.73 116.1 69.82 115.9 70.03C115.7 70.24 115.4 70.09 115.21 70.09L115.12 70Z" fill="#FFFE90"/>
</g>
<g style="mix-blend-mode:soft-light">
<path fill-rule="evenodd" clip-rule="evenodd" d="M82.5798 96.4199C82.4898 96.5899 82.4798 96.5699 82.5098 96.6999C82.5433 96.8199 82.5938 96.9344 82.6598 97.0399C82.8705 97.3162 83.1546 97.5276 83.4798 97.6499C83.7798 97.7899 84.1098 97.9099 84.4198 98.0299C84.7298 98.1499 85.0398 98.3499 85.3498 98.4999C85.7643 98.6964 86.1961 98.8537 86.6398 98.9699C87.0771 99.1327 87.5448 99.1976 88.0098 99.1599C88.1698 99.1599 88.4798 99.0699 88.5398 98.8899C88.5998 98.7099 88.3998 98.3899 88.2298 98.2799C88.1135 98.2091 87.9893 98.1521 87.8598 98.1099C87.6898 98.0299 87.5298 97.9399 87.3598 97.8699C87.0107 97.7143 86.6536 97.5774 86.2898 97.4599C85.7009 97.3722 85.1239 97.2178 84.5698 96.9999C84.2859 96.7974 83.9808 96.6264 83.6598 96.4899C83.3174 96.3481 82.9377 96.3235 82.5798 96.4199Z" fill="#FFFE90"/>
</g>
<g style="mix-blend-mode:soft-light">
<path fill-rule="evenodd" clip-rule="evenodd" d="M87.31 99.7899C87.31 99.6699 87.2 99.6299 87.31 99.5599C87.42 99.4899 87.53 99.5599 87.62 99.4999C87.7997 99.485 87.9803 99.485 88.16 99.4999C88.2704 99.5146 88.3782 99.5449 88.48 99.5899C88.6473 99.6376 88.8084 99.7047 88.96 99.7899C88.987 99.8169 89.0052 99.8513 89.0123 99.8888C89.0195 99.9262 89.0152 99.965 89 99.9999C88.88 100.23 88.38 100.18 88.19 100.14C88.0058 100.107 87.825 100.056 87.65 99.9899C87.5124 99.9575 87.3808 99.9035 87.26 99.8299L87.31 99.7899Z" fill="#FFFE90"/>
</g>
<g style="mix-blend-mode:soft-light">
<path fill-rule="evenodd" clip-rule="evenodd" d="M92.14 99.26C92.14 99.35 92.07 99.46 92.14 99.55C92.21 99.64 92.3 99.73 92.36 99.79C92.6134 100.08 92.9186 100.321 93.26 100.5C93.4 100.57 93.54 100.67 93.69 100.73L94.15 100.86C94.3 100.86 94.45 100.97 94.6 101.02C94.801 101.065 94.9983 101.125 95.19 101.2C95.9187 101.562 96.6873 101.837 97.48 102.02C97.8088 102.098 98.1512 102.098 98.48 102.02C98.66 101.96 98.83 101.89 98.77 101.69C98.6752 101.437 98.4948 101.224 98.26 101.09C97.9424 100.896 97.6076 100.732 97.26 100.6C96.83 100.39 96.4 100.21 95.95 100.03C95.5 99.85 95.13 99.72 94.71 99.56C94.0804 99.3084 93.4271 99.1207 92.76 99C92.4 99 92.12 99 92.14 99.26Z" fill="#FFFE90"/>
</g>
<g style="mix-blend-mode:soft-light">
<path fill-rule="evenodd" clip-rule="evenodd" d="M94.89 97.2299C95.0326 97.118 95.2087 97.0571 95.39 97.0571C95.5713 97.0571 95.7473 97.118 95.89 97.2299C96.01 97.3399 96.11 97.4599 95.89 97.5699C95.67 97.6799 94.89 97.7199 94.71 97.3799L94.89 97.2299Z" fill="#FFFE90"/>
</g>
<g style="mix-blend-mode:soft-light">
<path fill-rule="evenodd" clip-rule="evenodd" d="M105.83 85.39C105.63 85.39 105.05 85.31 104.83 85.54C104.772 85.6028 104.74 85.6848 104.74 85.77C104.74 85.8552 104.772 85.9373 104.83 86C105.145 86.2477 105.51 86.425 105.9 86.52C106.44 86.73 107.01 86.88 107.53 87.11C108.05 87.34 108.7 87.6 109.27 87.9C109.76 88.1411 110.238 88.4081 110.7 88.7C110.913 88.8352 111.133 88.9587 111.36 89.07C111.558 89.1873 111.77 89.2812 111.99 89.35C112.341 89.4618 112.722 89.4294 113.05 89.26C113.55 88.87 112.86 87.96 112.56 87.67C112.192 87.3015 111.771 86.9913 111.31 86.75C110.806 86.5311 110.289 86.3473 109.76 86.2C109.32 86.07 108.89 85.93 108.46 85.77C108.114 85.6411 107.76 85.5375 107.4 85.46C107 85.38 106.6 85.32 106.2 85.26C105.8 85.2 105.56 85.28 105.83 85.39Z" fill="#FFFE90"/>
</g>
<g style="mix-blend-mode:soft-light">
<path fill-rule="evenodd" clip-rule="evenodd" d="M109.91 85.05L110.45 85.21C110.45 85.26 110.51 85.28 110.56 85.32C110.621 85.3913 110.663 85.4775 110.68 85.57C110.68 85.7 110.68 85.79 110.55 85.84C110.424 85.8559 110.297 85.8445 110.176 85.8065C110.055 85.7685 109.944 85.7049 109.85 85.62C109.74 85.55 109.42 85.29 109.62 85.15L109.91 85.05Z" fill="#FFFE90"/>
</g>
<g style="mix-blend-mode:soft-light">
<path fill-rule="evenodd" clip-rule="evenodd" d="M60.08 15.6601C59.7549 15.5317 59.4206 15.4281 59.08 15.3501H58.54C58.13 15.3501 57.72 15.3501 57.32 15.3501C56.73 15.4101 56.15 15.5901 55.56 15.6901C55.12 15.7601 54.71 15.8901 54.28 16.0001C53.3882 16.1575 52.514 16.402 51.67 16.7301C51.32 16.8901 50.49 17.2801 50.43 17.7301C50.37 18.1801 50.73 18.0601 50.98 18.0901C51.6961 18.1818 52.4182 18.2186 53.14 18.2001C54.38 18.2001 55.61 17.9301 56.84 17.8401C57.56 17.7801 58.29 17.7601 59.01 17.7401C59.73 17.7201 60.38 17.6301 61.08 17.5501C61.63 17.4901 62.18 17.4801 62.72 17.4201C63.26 17.3601 63.93 17.1901 64.54 17.0901C65.315 16.97 66.0649 16.7234 66.76 16.3601C67.06 16.1901 67.32 15.9901 67.08 15.6401C66.84 15.2901 66.27 15.2501 65.87 15.2601C64.34 15.2601 62.87 15.3501 61.29 15.3501C61 15.3701 59.16 15.2701 60.08 15.6601Z" fill="#FFFE90"/>
</g>
<g style="mix-blend-mode:soft-light">
<path fill-rule="evenodd" clip-rule="evenodd" d="M64 14.33C64.7153 13.9544 65.5385 13.8378 66.33 14C66.55 14.06 67.1 14.29 66.79 14.55C66.6247 14.6491 66.4315 14.6913 66.24 14.67C65.96 14.67 65.66 14.67 65.38 14.67C64.9 14.67 64.43 14.44 63.96 14.38L64 14.33Z" fill="#FFFE90"/>
</g>
<g style="mix-blend-mode:soft-light">
<path fill-rule="evenodd" clip-rule="evenodd" d="M68.32 16.4201C68.6979 16.298 69.0929 16.2373 69.49 16.2401C69.6406 16.273 69.788 16.3199 69.93 16.3801C70.2083 16.4642 70.4668 16.6037 70.69 16.7901C71.06 17.1601 70.81 17.3101 70.44 17.4601C69.9896 17.5983 69.5119 17.6224 69.05 17.5301C68.85 17.5017 68.6569 17.4374 68.48 17.3401C68.4 17.3401 68.03 16.9001 68.32 16.8901V16.4201Z" fill="#FFFE90"/>
</g>
<g style="mix-blend-mode:soft-light">
<path fill-rule="evenodd" clip-rule="evenodd" d="M92.4799 19.64C91.7499 19.77 91.0899 19.87 90.3899 20.06C90.0617 20.1575 89.7278 20.2343 89.3899 20.2901C89.0399 20.3401 88.6799 20.2901 88.3199 20.2901C88.0154 20.3369 87.708 20.3637 87.3999 20.3701C87.1969 20.3551 86.993 20.3551 86.7899 20.3701C86.5899 20.3701 86.2899 20.4801 86.3699 20.7401C86.4499 21.0001 87.2999 21.3101 87.5899 21.4101C88.1099 21.5901 88.5899 21.7701 89.1599 21.9201C89.6964 22.0374 90.2415 22.111 90.7899 22.14C91.0399 22.14 91.2799 22.14 91.5299 22.14C91.7799 22.14 92.1299 22.2401 92.4399 22.2801C93.3299 22.3901 96.8799 22.8201 95.9399 20.9301C95.7668 20.5763 95.5092 20.2707 95.1899 20.0401C94.8517 19.8261 94.4798 19.6706 94.0899 19.5801C93.6335 19.4587 93.1572 19.4314 92.6899 19.5001C91.9999 19.6501 91.3599 20 92.4799 19.64Z" fill="#FFFE90"/>
</g>
<g style="mix-blend-mode:soft-light">
<path fill-rule="evenodd" clip-rule="evenodd" d="M109.05 27.5001C109.073 27.8328 109.163 28.1575 109.314 28.4547C109.465 28.752 109.675 29.0157 109.93 29.2301C110.415 29.8662 111.065 30.3573 111.81 30.6501C112.17 30.7801 112.72 30.9901 113.02 30.5801C113.32 30.1701 113.02 29.5801 112.75 29.2501C112.392 28.9233 111.974 28.6687 111.52 28.5001C111.07 28.2701 110.7 27.9901 110.27 27.7401C109.935 27.5053 109.573 27.3138 109.19 27.1701C108.84 27.0501 108.79 27.2601 109.05 27.5001Z" fill="#FFFE90"/>
</g>
<g style="mix-blend-mode:soft-light">
<path fill-rule="evenodd" clip-rule="evenodd" d="M27.1998 21.44C26.8037 21.6064 26.4518 21.8631 26.1723 22.1894C25.8928 22.5158 25.6933 22.903 25.5898 23.32C25.5198 24.02 26.1798 24.32 26.7698 24.32C27.2247 24.3377 27.6802 24.3109 28.1298 24.24C28.4834 24.2078 28.8342 24.151 29.1798 24.07C29.5345 24.0384 29.8786 23.9331 30.1903 23.7609C30.502 23.5887 30.7743 23.3534 30.9898 23.07C31.1663 22.8425 31.2695 22.5666 31.2855 22.2791C31.3016 21.9915 31.2299 21.7059 31.0798 21.46C30.6471 20.9866 30.0496 20.6967 29.4098 20.65C28.8399 20.6405 28.2732 20.7389 27.7398 20.94C27.4987 21.0192 27.2771 21.1487 27.0898 21.32C26.9998 21.45 26.5098 21.68 27.1998 21.44Z" fill="#FFFE90"/>
</g>
<g style="mix-blend-mode:soft-light">
<path fill-rule="evenodd" clip-rule="evenodd" d="M29.4798 18.6001C29.3698 18.8201 29.1698 19.0901 29.3398 19.3101C29.5098 19.5301 29.8998 19.4501 30.1398 19.4501C30.3798 19.4501 31.4798 19.2901 31.4698 18.7401C31.4698 17.9801 29.3698 18.2401 29.3798 18.7901L29.4798 18.6001Z" fill="#FFFE90"/>
</g>
<g style="mix-blend-mode:soft-light">
<path fill-rule="evenodd" clip-rule="evenodd" d="M10.8098 29.2999C11.3429 28.7807 11.9494 28.3427 12.6098 28C13.7526 27.341 14.9762 26.8334 16.2498 26.4899C17.1917 26.1801 18.208 26.1801 19.1498 26.4899C19.4798 26.6399 19.9898 26.9 19.9098 27.33C19.8298 27.76 19.4298 27.99 19.1598 28.2C18.727 28.4947 18.2603 28.7365 17.7698 28.92C17.3598 29.09 16.9298 29.2599 16.4998 29.3999C16.0209 29.5776 15.5533 29.7847 15.0998 30.02C14.5298 30.27 13.9898 30.55 13.4398 30.85C12.8025 31.15 12.1816 31.4838 11.5798 31.85C11.226 32.1453 10.8403 32.4002 10.4298 32.61C10.2231 32.7143 9.99976 32.782 9.76984 32.81C9.64289 32.769 9.53027 32.6927 9.44523 32.59C9.36019 32.4872 9.30628 32.3623 9.28984 32.2299C9.24737 31.7432 9.36311 31.2557 9.61984 30.84C10.1698 29.85 10.9998 28.6099 10.8098 29.2999Z" fill="#FFFE90"/>
</g>
<g style="mix-blend-mode:soft-light">
<path fill-rule="evenodd" clip-rule="evenodd" d="M10.34 33.85C9.95245 34.0626 9.61222 34.3518 9.33996 34.7C9.20996 34.88 9.00996 35.32 9.16996 35.54C9.32996 35.76 10.1 35.54 10.38 35.54C10.6262 35.5054 10.87 35.4553 11.11 35.39C11.35 35.3 11.55 35.18 11.79 35.1C12.03 35.02 12.42 34.88 12.53 34.53C12.64 34.18 12.43 34.01 12.2 33.79C11.9542 33.5966 11.6525 33.4879 11.34 33.48C11 33.48 10.28 33.57 10.18 33.96L10.34 33.85Z" fill="#FFFE90"/>
</g>
<g style="mix-blend-mode:soft-light">
<path fill-rule="evenodd" clip-rule="evenodd" d="M28.7198 33.9401C28.8798 34.1601 28.9798 34.3301 29.2798 34.3301C29.5004 34.3152 29.7185 34.275 29.9298 34.2101C30.1598 34.1501 30.6998 33.9001 30.5398 33.5601C30.4498 33.3801 30.1398 33.3701 29.9698 33.3701C29.7998 33.3701 29.5098 33.2901 29.2598 33.2701C29.0098 33.2501 28.3698 33.4301 28.3398 33.7501L28.7198 33.9401Z" fill="#FFFE90"/>
</g>
<g style="mix-blend-mode:soft-light">
<path fill-rule="evenodd" clip-rule="evenodd" d="M21.52 50.6199C21.8125 50.3337 22.1628 50.1134 22.5474 49.9737C22.932 49.834 23.3421 49.7782 23.75 49.8099C23.9 49.8099 24.1 49.8099 24.16 50.0099C24.22 50.2099 24.1 50.2599 23.98 50.3299C23.7361 50.4497 23.4712 50.5211 23.2 50.5399C23 50.5399 22.81 50.6599 22.61 50.6999C22.41 50.7399 22.2 50.5799 21.99 50.6199H21.52Z" fill="#FFFE90"/>
</g>
<g style="mix-blend-mode:soft-light">
<path fill-rule="evenodd" clip-rule="evenodd" d="M9.29993 92.77C10.1197 91.5648 11.2354 90.5903 12.5399 89.94C13.1699 89.65 14.5399 89.48 14.9999 90.16C15.4599 90.84 15.0599 91.61 14.7999 92.16C14.5049 92.6909 14.1706 93.199 13.7999 93.68C13.6534 94.01 13.4541 94.314 13.2099 94.58C12.3299 95.38 10.8399 96.16 9.63993 95.58C9.37245 95.4354 9.156 95.2119 9.02002 94.94C8.88404 94.668 8.83512 94.3608 8.87993 94.06C8.88024 93.6857 8.96597 93.3164 9.1306 92.9802C9.29523 92.644 9.53441 92.3498 9.82993 92.12L9.29993 92.77Z" fill="#FFFE90"/>
</g>
<g style="mix-blend-mode:soft-light">
<path fill-rule="evenodd" clip-rule="evenodd" d="M17.63 88.0001C17.4185 88.196 17.2867 88.4631 17.26 88.7501C17.482 88.9191 17.7427 89.0302 18.0184 89.0732C18.2941 89.1162 18.5762 89.0899 18.8392 88.9966C19.1022 88.9034 19.3378 88.746 19.5247 88.5389C19.7117 88.3317 19.8441 88.0813 19.91 87.8101C19.98 87.2901 19.72 87.1001 19.34 86.8601C18.96 86.6201 18.56 86.8001 18.2 87.2401L17.63 88.0001Z" fill="#FFFE90"/>
</g>
</g>
</g>
<defs>
<radialGradient id="paint0_radial" cx="0" cy="0" r="1" gradientUnits="userSpaceOnUse" gradientTransform="translate(50.38 43.09) scale(88.06)">
<stop stop-color="#FF5731"/>
<stop offset="0.7" stop-color="#BA005E"/>
<stop offset="0.95" stop-color="#5E1377"/>
<stop offset="1" stop-color="#8160FF"/>
</radialGradient>
<clipPath id="clip0">
<rect width="128.11" height="128.09" fill="white"/>
</clipPath>
</defs>
</svg>
