<svg width="225" height="17" viewBox="0 0 225 17" fill="none" xmlns="http://www.w3.org/2000/svg">
<path d="M5.37891 5.28125V7.625H8.89453C9.67578 7.625 10.0664 7.23438 10.0664 6.45312C10.0664 5.67188 9.67578 5.28125 8.89453 5.28125H5.37891ZM5.37891 12.3125V17H0.691406V0.59375H8.89453C12.8008 0.59375 14.7539 2.54688 14.7539 6.45312C14.7539 10.3594 12.8008 12.3125 8.89453 12.3125H5.37891ZM18 15.8281L17.6133 17H12.9258L18.7852 0.59375H23.4727L29.332 17H24.6445L24.2578 15.8281H18ZM22.6875 11.1406L21.1289 6.45312L19.5703 11.1406H22.6875ZM35.1914 5.28125V7.625H38.707C39.4883 7.625 39.8789 7.23438 39.8789 6.45312C39.8789 5.67188 39.4883 5.28125 38.707 5.28125H35.1914ZM37.1016 12.3125H35.1914V17H30.5039V0.59375H38.707C42.6133 0.59375 44.5664 2.54688 44.5664 6.45312C44.5664 9.07812 43.6875 10.8203 41.9297 11.6797L45.7383 17H40.4648L37.1016 12.3125ZM51.3984 15.8281L51.0117 17H46.3242L52.1836 0.59375H56.8711L62.7305 17H58.043L57.6562 15.8281H51.3984ZM56.0859 11.1406L54.5273 6.45312L52.9688 11.1406H56.0859ZM68.5898 12.3125H73.2773V17H63.9023V0.59375H68.5898V12.3125ZM79.1367 12.3125H83.8242V17H74.4492V0.59375H79.1367V12.3125ZM97.8867 0.59375V5.28125H84.9961V0.59375H97.8867ZM97.8867 6.45312V11.1406H84.9961V6.45312H97.8867ZM97.8867 12.3125V17H84.9961V12.3125H97.8867ZM103.746 12.3125H108.434V17H99.0586V0.59375H103.746V12.3125ZM124.84 11.1406C120.934 11.1406 118.98 9.36719 118.98 5.82031C118.98 2.33594 120.934 0.59375 124.84 0.59375H134.215L129.527 5.28125H124.84C124.059 5.28125 123.668 5.46094 123.668 5.82031C123.668 6.24219 124.059 6.45312 124.84 6.45312H128.355C132.262 6.45312 134.215 8.19531 134.215 11.6797C134.215 15.2266 132.262 17 128.355 17H118.395L123.082 12.3125H128.355C129.137 12.3125 129.527 12.1016 129.527 11.6797C129.527 11.3203 129.137 11.1406 128.355 11.1406H124.84ZM139.488 5.28125V7.625H143.004C143.785 7.625 144.176 7.23438 144.176 6.45312C144.176 5.67188 143.785 5.28125 143.004 5.28125H139.488ZM139.488 12.3125V17H134.801V0.59375H143.004C146.91 0.59375 148.863 2.54688 148.863 6.45312C148.863 10.3594 146.91 12.3125 143.004 12.3125H139.488ZM152.109 15.8281L151.723 17H147.035L152.895 0.59375H157.582L163.441 17H158.754L158.367 15.8281H152.109ZM156.797 11.1406L155.238 6.45312L153.68 11.1406H156.797ZM170.426 0.59375H175.699V5.28125H170.426C169.457 5.28125 168.629 5.625 167.941 6.3125C167.254 7 166.91 7.82812 166.91 8.79688C166.91 9.76562 167.254 10.5938 167.941 11.2812C168.629 11.9688 169.457 12.3125 170.426 12.3125H175.699V17H170.426C168.16 17 166.227 16.1992 164.625 14.5977C163.023 12.9961 162.223 11.0625 162.223 8.79688C162.223 6.53125 163.023 4.59766 164.625 2.99609C166.227 1.39453 168.16 0.59375 170.426 0.59375ZM189.762 0.59375V5.28125H176.871V0.59375H189.762ZM189.762 6.45312V11.1406H176.871V6.45312H189.762ZM189.762 12.3125V17H176.871V12.3125H189.762ZM201.445 12.3125C203.008 12.3125 203.789 11.1406 203.789 8.79688V0.59375H208.477V8.79688C208.477 14.2656 206.133 17 201.445 17H200.309V12.3125H201.445ZM215.52 11.1406C211.613 11.1406 209.66 9.36719 209.66 5.82031C209.66 2.33594 211.613 0.59375 215.52 0.59375H224.895L220.207 5.28125H215.52C214.738 5.28125 214.348 5.46094 214.348 5.82031C214.348 6.24219 214.738 6.45312 215.52 6.45312H219.035C222.941 6.45312 224.895 8.19531 224.895 11.6797C224.895 15.2266 222.941 17 219.035 17H209.074L213.762 12.3125H219.035C219.816 12.3125 220.207 12.1016 220.207 11.6797C220.207 11.3203 219.816 11.1406 219.035 11.1406H215.52Z" fill="white"/>
</svg>
