<svg width="337" height="25" viewBox="0 0 337 25" fill="none" xmlns="http://www.w3.org/2000/svg">
<path d="M7.31836 7.42188V10.9375H12.5918C13.7637 10.9375 14.3496 10.3516 14.3496 9.17969C14.3496 8.00781 13.7637 7.42188 12.5918 7.42188H7.31836ZM7.31836 17.9688V25H0.287109V0.390625H12.5918C18.4512 0.390625 21.3809 3.32031 21.3809 9.17969C21.3809 15.0391 18.4512 17.9688 12.5918 17.9688H7.31836ZM26.25 23.2422L25.6699 25H18.6387L27.4277 0.390625H34.459L43.248 25H36.2168L35.6367 23.2422H26.25ZM33.2812 16.2109L30.9434 9.17969L28.6055 16.2109H33.2812ZM52.0371 7.42188V10.9375H57.3105C58.4824 10.9375 59.0684 10.3516 59.0684 9.17969C59.0684 8.00781 58.4824 7.42188 57.3105 7.42188H52.0371ZM54.9023 17.9688H52.0371V25H45.0059V0.390625H57.3105C63.1699 0.390625 66.0996 3.32031 66.0996 9.17969C66.0996 13.1172 64.7812 15.7305 62.1445 17.0195L67.8574 25H59.9473L54.9023 17.9688ZM76.3477 23.2422L75.7676 25H68.7363L77.5254 0.390625H84.5566L93.3457 25H86.3145L85.7344 23.2422H76.3477ZM83.3789 16.2109L81.041 9.17969L78.7031 16.2109H83.3789ZM102.135 17.9688H109.166V25H95.1035V0.390625H102.135V17.9688ZM117.955 17.9688H124.986V25H110.924V0.390625H117.955V17.9688ZM146.08 0.390625V7.42188H126.744V0.390625H146.08ZM146.08 9.17969V16.2109H126.744V9.17969H146.08ZM146.08 17.9688V25H126.744V17.9688H146.08ZM154.869 17.9688H161.9V25H147.838V0.390625H154.869V17.9688ZM186.51 16.2109C180.65 16.2109 177.721 13.5508 177.721 8.23047C177.721 3.00391 180.65 0.390625 186.51 0.390625H200.572L193.541 7.42188H186.51C185.338 7.42188 184.752 7.69141 184.752 8.23047C184.752 8.86328 185.338 9.17969 186.51 9.17969H191.783C197.643 9.17969 200.572 11.793 200.572 17.0195C200.572 22.3398 197.643 25 191.783 25H176.842L183.873 17.9688H191.783C192.955 17.9688 193.541 17.6523 193.541 17.0195C193.541 16.4805 192.955 16.2109 191.783 16.2109H186.51ZM208.482 7.42188V10.9375H213.756C214.928 10.9375 215.514 10.3516 215.514 9.17969C215.514 8.00781 214.928 7.42188 213.756 7.42188H208.482ZM208.482 17.9688V25H201.451V0.390625H213.756C219.615 0.390625 222.545 3.32031 222.545 9.17969C222.545 15.0391 219.615 17.9688 213.756 17.9688H208.482ZM227.414 23.2422L226.834 25H219.803L228.592 0.390625H235.623L244.412 25H237.381L236.801 23.2422H227.414ZM234.445 16.2109L232.107 9.17969L229.77 16.2109H234.445ZM254.889 0.390625H262.799V7.42188H254.889C253.436 7.42188 252.193 7.9375 251.162 8.96875C250.131 10 249.615 11.2422 249.615 12.6953C249.615 14.1484 250.131 15.3906 251.162 16.4219C252.193 17.4531 253.436 17.9688 254.889 17.9688H262.799V25H254.889C251.49 25 248.59 23.7988 246.188 21.3965C243.785 18.9941 242.584 16.0938 242.584 12.6953C242.584 9.29688 243.785 6.39648 246.188 3.99414C248.59 1.5918 251.49 0.390625 254.889 0.390625ZM283.893 0.390625V7.42188H264.557V0.390625H283.893ZM283.893 9.17969V16.2109H264.557V9.17969H283.893ZM283.893 17.9688V25H264.557V17.9688H283.893ZM301.418 17.9688C303.762 17.9688 304.934 16.2109 304.934 12.6953V0.390625H311.965V12.6953C311.965 20.8984 308.449 25 301.418 25H299.713V17.9688H301.418ZM322.529 16.2109C316.67 16.2109 313.74 13.5508 313.74 8.23047C313.74 3.00391 316.67 0.390625 322.529 0.390625H336.592L329.561 7.42188H322.529C321.357 7.42188 320.771 7.69141 320.771 8.23047C320.771 8.86328 321.357 9.17969 322.529 9.17969H327.803C333.662 9.17969 336.592 11.793 336.592 17.0195C336.592 22.3398 333.662 25 327.803 25H312.861L319.893 17.9688H327.803C328.975 17.9688 329.561 17.6523 329.561 17.0195C329.561 16.4805 328.975 16.2109 327.803 16.2109H322.529Z" fill="white"/>
</svg>
