<svg width="284" height="25" viewBox="0 0 284 25" fill="none" xmlns="http://www.w3.org/2000/svg">
<path d="M7.22852 7.42188V10.9375H12.502C13.6738 10.9375 14.2598 10.3516 14.2598 9.17969C14.2598 8.00781 13.6738 7.42188 12.502 7.42188H7.22852ZM7.22852 17.9688V25H0.197266V0.390625H12.502C18.3613 0.390625 21.291 3.32031 21.291 9.17969C21.291 15.0391 18.3613 17.9688 12.502 17.9688H7.22852ZM26.1602 23.2422L25.5801 25H18.5488L27.3379 0.390625H34.3691L43.1582 25H36.127L35.5469 23.2422H26.1602ZM33.1914 16.2109L30.8535 9.17969L28.5156 16.2109H33.1914ZM51.9473 7.42188V10.9375H57.2207C58.3926 10.9375 58.9785 10.3516 58.9785 9.17969C58.9785 8.00781 58.3926 7.42188 57.2207 7.42188H51.9473ZM54.8125 17.9688H51.9473V25H44.916V0.390625H57.2207C63.0801 0.390625 66.0098 3.32031 66.0098 9.17969C66.0098 13.1172 64.6914 15.7305 62.0547 17.0195L67.7676 25H59.8574L54.8125 17.9688ZM76.2578 23.2422L75.6777 25H68.6465L77.4355 0.390625H84.4668L93.2559 25H86.2246L85.6445 23.2422H76.2578ZM83.2891 16.2109L80.9512 9.17969L78.6133 16.2109H83.2891ZM102.045 17.9688H109.076V25H95.0137V0.390625H102.045V17.9688ZM117.865 17.9688H124.896V25H110.834V0.390625H117.865V17.9688ZM145.99 0.390625V7.42188H126.654V0.390625H145.99ZM145.99 9.17969V16.2109H126.654V9.17969H145.99ZM145.99 17.9688V25H126.654V17.9688H145.99ZM154.779 17.9688H161.811V25H147.748V0.390625H154.779V17.9688ZM186.42 16.2109C180.561 16.2109 177.631 13.5508 177.631 8.23047C177.631 3.00391 180.561 0.390625 186.42 0.390625H200.482L193.451 7.42188H186.42C185.248 7.42188 184.662 7.69141 184.662 8.23047C184.662 8.86328 185.248 9.17969 186.42 9.17969H191.693C197.553 9.17969 200.482 11.793 200.482 17.0195C200.482 22.3398 197.553 25 191.693 25H176.752L183.783 17.9688H191.693C192.865 17.9688 193.451 17.6523 193.451 17.0195C193.451 16.4805 192.865 16.2109 191.693 16.2109H186.42ZM208.393 7.42188V10.9375H213.666C214.838 10.9375 215.424 10.3516 215.424 9.17969C215.424 8.00781 214.838 7.42188 213.666 7.42188H208.393ZM208.393 17.9688V25H201.361V0.390625H213.666C219.525 0.390625 222.455 3.32031 222.455 9.17969C222.455 15.0391 219.525 17.9688 213.666 17.9688H208.393ZM227.324 23.2422L226.744 25H219.713L228.502 0.390625H235.533L244.322 25H237.291L236.711 23.2422H227.324ZM234.355 16.2109L232.018 9.17969L229.68 16.2109H234.355ZM254.799 0.390625H262.709V7.42188H254.799C253.346 7.42188 252.104 7.9375 251.072 8.96875C250.041 10 249.525 11.2422 249.525 12.6953C249.525 14.1484 250.041 15.3906 251.072 16.4219C252.104 17.4531 253.346 17.9688 254.799 17.9688H262.709V25H254.799C251.4 25 248.5 23.7988 246.098 21.3965C243.695 18.9941 242.494 16.0938 242.494 12.6953C242.494 9.29688 243.695 6.39648 246.098 3.99414C248.5 1.5918 251.4 0.390625 254.799 0.390625ZM283.803 0.390625V7.42188H264.467V0.390625H283.803ZM283.803 9.17969V16.2109H264.467V9.17969H283.803ZM283.803 17.9688V25H264.467V17.9688H283.803Z" fill="white"/>
</svg>
