<svg width="197" height="18" viewBox="0 0 197 18" fill="none" xmlns="http://www.w3.org/2000/svg">
<path d="M4.90869 5.79297V8.23438H8.5708C9.3846 8.23438 9.7915 7.82747 9.7915 7.01367C9.7915 6.19987 9.3846 5.79297 8.5708 5.79297H4.90869ZM4.90869 13.1172V18H0.0258789V0.910156H8.5708C12.6398 0.910156 14.6743 2.94466 14.6743 7.01367C14.6743 11.0827 12.6398 13.1172 8.5708 13.1172H4.90869ZM18.0557 16.7793L17.6528 18H12.77L18.8735 0.910156H23.7563L29.8599 18H24.9771L24.5742 16.7793H18.0557ZM22.9385 11.8965L21.3149 7.01367L19.6914 11.8965H22.9385ZM35.9634 5.79297V8.23438H39.6255C40.4393 8.23438 40.8462 7.82747 40.8462 7.01367C40.8462 6.19987 40.4393 5.79297 39.6255 5.79297H35.9634ZM37.9531 13.1172H35.9634V18H31.0806V0.910156H39.6255C43.6945 0.910156 45.729 2.94466 45.729 7.01367C45.729 9.74805 44.8135 11.5628 42.9824 12.458L46.9497 18H41.4565L37.9531 13.1172ZM52.8457 16.7793L52.4429 18H47.5601L53.6636 0.910156H58.5464L64.6499 18H59.7671L59.3643 16.7793H52.8457ZM57.7285 11.8965L56.105 7.01367L54.4814 11.8965H57.7285ZM70.7534 13.1172H75.6362V18H65.8706V0.910156H70.7534V13.1172ZM81.7397 13.1172H86.6226V18H76.8569V0.910156H81.7397V13.1172ZM101.271 0.910156V5.79297H87.8433V0.910156H101.271ZM101.271 7.01367V11.8965H87.8433V7.01367H101.271ZM101.271 13.1172V18H87.8433V13.1172H101.271ZM107.375 13.1172H112.257V18H102.492V0.910156H107.375V13.1172ZM129.347 11.8965C125.278 11.8965 123.244 10.0492 123.244 6.35449C123.244 2.72493 125.278 0.910156 129.347 0.910156H139.113L134.23 5.79297H129.347C128.533 5.79297 128.126 5.98014 128.126 6.35449C128.126 6.79395 128.533 7.01367 129.347 7.01367H133.009C137.078 7.01367 139.113 8.82845 139.113 12.458C139.113 16.1527 137.078 18 133.009 18H122.633L127.516 13.1172H133.009C133.823 13.1172 134.23 12.8975 134.23 12.458C134.23 12.0837 133.823 11.8965 133.009 11.8965H129.347ZM144.606 5.79297V8.23438H148.268C149.082 8.23438 149.489 7.82747 149.489 7.01367C149.489 6.19987 149.082 5.79297 148.268 5.79297H144.606ZM144.606 13.1172V18H139.723V0.910156H148.268C152.337 0.910156 154.372 2.94466 154.372 7.01367C154.372 11.0827 152.337 13.1172 148.268 13.1172H144.606ZM157.753 16.7793L157.35 18H152.467L158.571 0.910156H163.454L169.557 18H164.674L164.271 16.7793H157.753ZM162.636 11.8965L161.012 7.01367L159.389 11.8965H162.636ZM176.833 0.910156H182.326V5.79297H176.833C175.823 5.79297 174.961 6.15104 174.245 6.86719C173.528 7.58333 173.17 8.44596 173.17 9.45508C173.17 10.4642 173.528 11.3268 174.245 12.043C174.961 12.7591 175.823 13.1172 176.833 13.1172H182.326V18H176.833C174.472 18 172.458 17.1659 170.79 15.4976C169.122 13.8293 168.288 11.8151 168.288 9.45508C168.288 7.09505 169.122 5.08089 170.79 3.4126C172.458 1.7443 174.472 0.910156 176.833 0.910156ZM196.974 0.910156V5.79297H183.546V0.910156H196.974ZM196.974 7.01367V11.8965H183.546V7.01367H196.974ZM196.974 13.1172V18H183.546V13.1172H196.974Z" fill="white"/>
</svg>
